<svg width="48" height="48" viewBox="0 0 48 48" fill="none" xmlns="http://www.w3.org/2000/svg">
<path d="M34.9551 18.0221C34.9701 18.022 34.985 18.022 35 18.022C39.9706 18.022 44 22.0588 44 27.0385C44 31.6796 40.5 35.5016 36 36M34.9551 18.0221C34.9848 17.6921 35 17.3579 35 17.0202C35 10.9339 30.0751 6 24 6C18.2465 6 13.5247 10.4253 13.0408 16.0638M34.9551 18.0221C34.7507 20.2952 33.8572 22.3692 32.4857 24.033M13.0408 16.0638C7.96796 16.5475 4 20.8278 4 26.0367C4 30.8835 7.43552 34.9264 12 35.8546M13.0408 16.0638C13.3565 16.0337 13.6765 16.0183 14 16.0183C16.2516 16.0183 18.3295 16.7639 20.001 18.022" stroke="#141B34" stroke-width="2" stroke-linecap="round" stroke-linejoin="round"/>
<path d="M24 42L24 26M24 42C22.5995 42 19.9831 38.0114 19 37M24 42C25.4005 42 28.0169 38.0114 29 37" stroke="#141B34" stroke-width="2" stroke-linecap="round" stroke-linejoin="round"/>
</svg>
