<svg width="29" height="24" viewBox="0 0 29 24" fill="none" xmlns="http://www.w3.org/2000/svg">
<path d="M20.5 2V4M8.5 2V4" stroke="#282828" stroke-width="1.5" stroke-linecap="round" stroke-linejoin="round"/>
<path d="M14.4955 13H14.5045M14.4955 17H14.5045M18.491 13H18.5M10.5 13H10.509M10.5 17H10.509" stroke="#282828" stroke-width="2" stroke-linecap="round" stroke-linejoin="round"/>
<path d="M6 8H23" stroke="#282828" stroke-width="1.5" stroke-linecap="round" stroke-linejoin="round"/>
<path d="M5 12.2432C5 7.88594 5 5.70728 6.25212 4.35364C7.50424 3 9.51949 3 13.55 3H15.45C19.4805 3 21.4958 3 22.7479 4.35364C24 5.70728 24 7.88594 24 12.2432V12.7568C24 17.1141 24 19.2927 22.7479 20.6464C21.4958 22 19.4805 22 15.45 22H13.55C9.51949 22 7.50424 22 6.25212 20.6464C5 19.2927 5 17.1141 5 12.7568V12.2432Z" stroke="#282828" stroke-width="1.5" stroke-linecap="round" stroke-linejoin="round"/>
<path d="M5.5 8H23.5" stroke="#282828" stroke-width="1.5" stroke-linecap="round" stroke-linejoin="round"/>
</svg>
