<svg width="23" height="23" viewBox="0 0 23 23" fill="none" xmlns="http://www.w3.org/2000/svg">
<path d="M11.1375 0.137451C5.07217 0.137451 0.137451 5.07217 0.137451 11.1375C0.137451 17.2027 5.07217 22.1375 11.1375 22.1375C17.2027 22.1375 22.1375 17.2027 22.1375 11.1375C22.1375 5.07217 17.2028 0.137451 11.1375 0.137451ZM11.1375 21.1809C5.59918 21.1809 1.09396 16.6757 1.09396 11.1375C1.09396 5.59918 5.59918 1.09396 11.1375 1.09396C16.6757 1.09396 21.1809 5.59918 21.1809 11.1375C21.1809 16.6757 16.6757 21.1809 11.1375 21.1809Z" fill="#282828" stroke="#282828" stroke-width="0.275001"/>
<path d="M16.3981 6.259C16.3924 6.25232 16.3905 6.24466 16.3838 6.23798C16.3771 6.2313 16.3694 6.23031 16.3628 6.22363C15.0657 4.93519 13.2808 4.13745 11.3114 4.13745C9.34191 4.13745 7.55704 4.93519 6.259 6.22457C6.25232 6.23031 6.24466 6.23224 6.23798 6.23798C6.2313 6.24372 6.23031 6.25232 6.22457 6.259C4.93519 7.55699 4.13745 9.34186 4.13745 11.3114C4.13745 13.2808 4.93519 15.0657 6.22457 16.3637C6.23031 16.3704 6.23224 16.3781 6.23798 16.3848C6.24372 16.3905 6.25232 16.3924 6.259 16.3991C7.55699 17.6876 9.34186 18.4853 11.3114 18.4853C13.2808 18.4853 15.0657 17.6876 16.3637 16.3982C16.3704 16.3924 16.3781 16.3905 16.3848 16.3838C16.3915 16.3771 16.3924 16.3695 16.3991 16.3628C17.6876 15.0658 18.4853 13.2809 18.4853 11.3114C18.4853 9.34186 17.6875 7.55699 16.3981 6.259ZM17.5048 10.8331H13.6548C13.5936 10.5299 13.475 10.2458 13.3057 9.99326L16.027 7.27196C16.863 8.24569 17.4006 9.47866 17.5048 10.8331ZM11.7896 5.11786C13.144 5.2221 14.377 5.75871 15.3517 6.59474L12.6247 9.32178C12.3702 9.15821 12.0852 9.04917 11.7896 8.99272V5.11786ZM10.8331 5.11786V8.99178C10.5356 9.04823 10.2496 9.15821 9.99711 9.32083L7.27102 6.59474C8.24569 5.7597 9.47866 5.2221 10.8331 5.11786ZM6.59474 7.27098L9.31797 9.9942C9.14772 10.2477 9.02814 10.5317 8.96788 10.8331H5.11786C5.2221 9.47866 5.7597 8.24569 6.59474 7.27098ZM5.11786 11.7896H8.96788C9.02908 12.0928 9.14772 12.3769 9.31702 12.6294L6.59573 15.3507C5.7597 14.377 5.2221 13.144 5.11786 11.7896ZM10.8331 17.5048C9.47866 17.4006 8.24569 16.864 7.27102 16.028L9.99424 13.3047C10.2477 13.475 10.5318 13.5946 10.8331 13.6548V17.5048ZM10.2955 12.3176C10.0258 12.0536 9.87654 11.6968 9.87654 11.3113C9.87654 10.9259 10.0258 10.5691 10.3051 10.2964C10.8321 9.75504 11.781 9.74549 12.3272 10.3051C12.5969 10.5691 12.7461 10.9258 12.7461 11.3113C12.7461 11.6968 12.5969 12.0536 12.3272 12.3176C12.3262 12.3185 12.3262 12.3195 12.3252 12.3205C12.3243 12.3214 12.3233 12.3214 12.3224 12.3224C12.3214 12.3233 12.3214 12.3233 12.3214 12.3243C12.3205 12.3253 12.3185 12.3253 12.3176 12.3263C12.0536 12.5969 11.6959 12.7462 11.3113 12.7462C10.9268 12.7461 10.5691 12.5969 10.2955 12.3176ZM11.7896 17.5048V13.6548C12.0909 13.5936 12.375 13.475 12.6285 13.3047L15.3517 16.028C14.378 16.8639 13.145 17.4006 11.7896 17.5048ZM16.028 15.3517L13.3047 12.6285C13.475 12.375 13.5946 12.0909 13.6548 11.7896H17.5039C17.4006 13.144 16.863 14.377 16.028 15.3517Z" fill="#282828" stroke="#282828" stroke-width="0.275001"/>
</svg>
