<svg version="1.1" id="Layer_1" xmlns="http://www.w3.org/2000/svg" xmlns:xlink="http://www.w3.org/1999/xlink" x="0px" y="0px"
	 width="100%" viewBox="0 0 2555 565" enable-background="new 0 0 2555 565" xml:space="preserve">
<path fill="#FFFFFF" opacity="1.000000" stroke="none" 
	d="
M2556.000000,189.000000 
	C2556.000000,314.647552 2556.000000,440.295074 2556.000000,566.000000 
	C1801.967285,566.000000 1047.934570,566.000000 293.617676,565.591553 
	C302.492615,564.456238 311.655518,563.774170 320.809967,562.992920 
	C337.787842,561.544006 354.153198,557.246521 370.365753,552.244690 
	C390.254395,546.108765 408.961914,537.311035 426.964630,526.978699 
	C443.312653,517.596069 458.609833,506.627960 472.443237,493.876770 
	C491.417084,476.387299 509.145233,457.595093 522.146851,435.123871 
	C531.056091,419.725739 539.693909,403.987366 546.489624,387.587494 
	C560.775574,353.111786 566.661316,316.834076 566.010193,279.513855 
	C565.992981,278.528961 566.141968,277.542175 566.187805,276.555054 
	C566.455688,270.790344 567.620422,264.892090 566.794983,259.287415 
	C564.940979,246.699768 566.046326,234.441666 569.943298,222.584091 
	C577.403809,199.883606 586.296204,177.581329 590.390625,153.943100 
	C593.247070,137.452118 595.244141,120.780624 596.820068,104.113640 
	C597.543457,96.463127 596.757263,88.582619 595.900879,80.890419 
	C594.609863,69.293686 592.967468,57.714134 590.877747,46.235912 
	C589.469727,38.502346 582.982483,34.749691 575.906616,38.188000 
	C567.435852,42.304108 559.311035,47.398502 551.725281,53.001797 
	C542.433960,59.864906 533.856323,67.694321 525.627258,74.557892 
	C519.399353,71.553528 513.834778,68.232689 507.845154,66.112564 
	C495.478455,61.735157 482.562958,61.713207 469.548676,61.849907 
	C454.682190,62.006065 441.115906,65.504562 428.679565,73.660194 
	C427.624451,74.352150 425.185822,74.348602 424.256012,73.596893 
	C415.746429,66.717484 407.779724,59.117744 398.948944,52.699070 
	C391.229706,47.088322 382.847931,42.230995 374.289886,37.986450 
	C368.323029,35.027069 362.449402,38.020367 361.142944,44.450127 
	C358.664856,56.645748 356.584656,68.958771 355.156677,81.317490 
	C354.302673,88.708801 354.549194,96.312637 355.099213,103.762009 
	C356.072601,116.945709 357.130707,130.163071 359.090424,143.225769 
	C363.234131,170.845413 371.413483,197.375870 382.587921,222.947678 
	C384.897705,228.233490 384.838715,232.695038 382.129852,237.875000 
	C376.426453,248.781235 368.928131,258.013611 359.114532,265.381409 
	C345.447113,275.642639 330.144104,281.875549 312.986176,281.918365 
	C237.333267,282.107239 161.679016,281.846680 86.026695,282.133026 
	C71.392937,282.188416 55.771133,267.559265 57.081276,252.864731 
	C57.727703,245.614380 58.726128,238.318237 60.438999,231.254684 
	C65.486488,210.439728 73.015450,190.597610 83.499977,171.789185 
	C93.213486,154.363907 104.878380,138.459122 118.555351,124.101494 
	C132.546036,109.414536 148.469894,97.037003 165.882217,86.473808 
	C184.854843,74.964027 204.928482,66.221413 226.461487,61.108032 
	C238.851288,58.165859 251.535675,56.487164 264.030884,53.959908 
	C278.653076,51.002445 287.486969,34.913544 283.184113,20.455858 
	C280.058441,9.953420 272.773865,4.322033 263.000000,1.000000 
	C1027.333374,1.000000 1791.666626,1.000000 2556.000000,1.000000 
	C2556.000000,47.113346 2556.000000,93.105766 2555.531250,139.549103 
	C2464.795410,140.000000 2374.528320,140.000000 2284.270020,140.000000 
	C2284.270020,156.604828 2284.270020,172.676895 2284.270020,189.146729 
	C2320.611328,189.146729 2356.684814,189.146729 2393.154297,189.146729 
	C2393.154297,254.618744 2393.154297,319.690918 2393.154297,384.718445 
	C2411.628418,384.718445 2429.700684,384.718445 2448.169922,384.718445 
	C2448.169922,319.365692 2448.169922,254.293549 2448.169922,189.000000 
	C2484.379883,189.000000 2520.189941,189.000000 2556.000000,189.000000 
M1447.000000,322.500000 
	C1447.000000,314.402832 1447.000000,306.305664 1447.000000,298.218719 
	C1485.643799,298.218719 1523.715210,298.218719 1561.427246,298.218719 
	C1567.069092,309.110107 1572.580566,319.665253 1578.014893,330.259949 
	C1586.825073,347.435822 1595.665894,364.597137 1604.283447,381.869507 
	C1605.670410,384.649475 1607.440308,385.052399 1610.107178,385.040680 
	C1627.934082,384.962372 1645.761475,385.000000 1663.588623,385.000000 
	C1664.998291,385.000000 1666.407959,385.000000 1668.413452,385.000000 
	C1650.929688,352.148224 1633.812622,319.985687 1616.730103,287.887817 
	C1617.290771,287.427826 1617.504517,287.158722 1617.782593,287.037842 
	C1637.432251,278.493988 1650.461304,263.750305 1657.574951,243.787750 
	C1662.133179,230.996338 1662.858887,217.843735 1661.156372,204.261520 
	C1658.816528,185.593002 1651.777466,169.773499 1637.651611,157.022705 
	C1624.680786,145.314484 1609.114746,140.278168 1592.343262,140.170685 
	C1527.035156,139.752029 1461.722656,139.998489 1396.411865,140.009888 
	C1394.983887,140.010132 1393.555786,140.158035 1392.294189,140.227844 
	C1392.294189,222.024933 1392.294189,303.410431 1392.294189,384.708008 
	C1410.658081,384.708008 1428.726318,384.708008 1447.000000,384.708008 
	C1447.000000,364.111145 1447.000000,343.805573 1447.000000,322.500000 
M1759.002197,280.249176 
	C1759.007202,268.254272 1757.579956,256.049225 1759.303101,244.306442 
	C1763.419800,216.251709 1780.895508,198.550568 1806.937622,189.055161 
	C1826.274414,182.004578 1846.362427,180.186249 1866.721436,183.082352 
	C1877.405884,184.602219 1888.156250,186.310867 1898.532593,189.179733 
	C1911.410522,192.740311 1922.542480,199.653320 1930.383911,210.913315 
	C1935.536621,218.312164 1937.463135,226.705170 1937.057983,235.792023 
	C1955.145508,235.792023 1972.884766,235.792023 1991.428833,235.792023 
	C1990.939453,229.689026 1990.777100,223.796692 1989.942871,218.001022 
	C1987.672974,202.231644 1980.857178,188.419373 1970.150635,176.794800 
	C1957.184814,162.716980 1941.013916,153.484756 1923.093750,146.892319 
	C1905.911621,140.571442 1888.047241,137.136032 1870.042114,136.340256 
	C1851.111572,135.503616 1831.962646,136.386139 1813.097412,138.337799 
	C1798.646240,139.832809 1784.549316,144.069839 1770.923950,149.843231 
	C1746.488892,160.197037 1727.608032,176.527222 1715.124146,199.830185 
	C1707.201782,214.618439 1702.981812,230.864456 1702.196045,247.517426 
	C1701.084595,271.071045 1701.863892,294.475616 1710.845215,317.038818 
	C1722.496338,346.308899 1743.631348,365.474915 1772.231812,376.903931 
	C1796.856201,386.744019 1822.892456,389.319000 1849.142578,389.923065 
	C1856.548584,390.093475 1863.978271,389.378021 1871.392700,388.983917 
	C1876.146973,388.731201 1880.962524,388.722321 1885.630005,387.910950 
	C1900.688232,385.293427 1915.536011,382.076996 1929.814819,376.153534 
	C1955.364868,365.554138 1975.635742,349.693817 1986.228027,323.325867 
	C1990.369141,313.017212 1991.899048,302.261841 1991.988525,291.273132 
	C1973.957397,291.273132 1956.530151,291.273132 1939.898804,291.273132 
	C1938.354736,297.155884 1937.573853,302.867432 1935.379639,307.971436 
	C1929.061279,322.668793 1916.951416,330.941650 1902.303101,336.001251 
	C1884.122925,342.280640 1865.374023,343.480652 1846.267212,343.152710 
	C1828.091431,342.840820 1810.882935,339.460083 1794.802734,330.956848 
	C1782.251221,324.319519 1772.116943,315.006714 1766.133057,302.006561 
	C1763.077637,295.368683 1761.355103,288.117279 1759.002197,280.249176 
M917.441895,388.000000 
	C933.604370,385.819702 949.367676,382.323395 964.614319,376.192230 
	C978.488220,370.613159 990.940369,362.896484 1001.545776,352.661407 
	C1010.879700,343.653351 1018.107666,332.845917 1022.024780,320.172058 
	C1024.962036,310.668396 1026.963379,301.079773 1025.648560,291.000000 
	C1010.944580,291.000000 996.617676,291.000000 982.290833,291.000000 
	C974.056030,291.000000 974.057556,291.000214 972.992554,299.251678 
	C972.929688,299.738678 972.835083,300.224579 972.714905,300.700775 
	C969.208984,314.596619 960.471558,324.150726 948.171631,331.041107 
	C936.987732,337.306335 924.759766,340.005219 912.364807,341.863708 
	C903.478088,343.196106 894.415039,343.756866 885.422607,343.846069 
	C878.776978,343.911987 872.113281,342.709503 865.466492,341.990723 
	C851.212402,340.449249 837.593140,336.536682 825.559570,328.738556 
	C813.076233,320.648926 803.162415,310.206299 797.845337,295.682953 
	C791.427124,278.151917 791.942444,260.242950 794.198669,242.355667 
	C795.820557,229.496567 801.825317,218.178101 810.840942,208.672501 
	C828.745544,189.794891 851.971741,183.800720 876.721069,182.143661 
	C885.241821,181.573181 893.952637,182.057968 902.435425,183.153671 
	C912.967285,184.514008 923.606262,186.170120 933.734619,189.233536 
	C945.387573,192.758072 955.801147,198.951065 963.536255,208.950989 
	C969.647339,216.851364 971.850830,225.876495 972.191528,235.661621 
	C990.176086,235.661621 1008.040405,235.661621 1026.443848,235.661621 
	C1025.936279,230.715515 1025.406006,226.162445 1025.011963,221.597626 
	C1023.650452,205.825134 1017.441101,191.978455 1007.405273,180.027634 
	C993.235901,163.154388 974.832214,152.441101 954.101929,145.593796 
	C937.733398,140.187210 920.811157,136.934875 903.675293,136.217087 
	C887.637878,135.545349 871.427490,135.696609 855.472534,137.285889 
	C839.183777,138.908417 823.094177,142.438904 807.771240,148.908615 
	C789.362854,156.681168 773.015442,167.290253 760.617004,183.026733 
	C743.675781,204.528931 737.096863,229.824890 736.096863,256.683380 
	C735.517700,272.240631 737.111938,287.663910 740.940796,302.869507 
	C748.636536,333.431366 766.227539,356.201538 793.992920,370.960724 
	C820.868591,385.246948 850.277222,388.802277 880.033569,389.821167 
	C892.161499,390.236511 904.357483,388.666687 917.441895,388.000000 
M1096.035156,292.615845 
	C1080.767212,323.308655 1065.499146,354.001434 1050.079102,385.000000 
	C1068.082520,385.000000 1085.413818,384.896027 1102.741699,385.090942 
	C1106.059448,385.128235 1107.674683,384.033234 1109.048828,381.132660 
	C1115.246094,368.051880 1121.840454,355.156555 1127.873047,342.002380 
	C1129.420410,338.628418 1131.273193,337.912323 1134.593994,337.937073 
	C1152.423584,338.070221 1170.254517,338.000000 1188.085083,338.000000 
	C1216.573975,338.000000 1245.062866,338.000000 1273.639526,338.000000 
	C1281.321045,353.686981 1288.947998,369.262512 1296.529419,384.745056 
	C1316.638428,384.745056 1336.715942,384.745056 1357.178711,384.745056 
	C1356.605591,383.387390 1356.235962,382.355316 1355.749390,381.381653 
	C1333.725342,337.320953 1311.686890,293.267456 1289.659180,249.208618 
	C1272.093384,214.074158 1254.564331,178.921219 1236.896729,143.838028 
	C1236.095947,142.247986 1234.101074,140.181564 1232.640381,140.163986 
	C1212.512939,139.921768 1192.381592,140.000473 1172.499146,140.000473 
	C1147.046021,190.907135 1121.772949,241.453568 1096.035156,292.615845 
M2043.500000,385.000000 
	C2053.266846,385.000000 2063.033936,385.000000 2072.496582,385.000000 
	C2080.253662,369.039368 2087.772949,353.568329 2095.261963,338.159668 
	C2095.950928,338.095032 2096.445068,338.008087 2096.939453,338.007996 
	C2143.087158,338.001068 2189.235352,338.046051 2235.382568,337.899078 
	C2238.487549,337.889191 2239.835938,339.199585 2240.954834,341.536285 
	C2247.338867,354.871094 2253.642334,368.245789 2260.207764,381.490692 
	C2260.969971,383.027924 2263.167969,384.831787 2264.720215,384.850220 
	C2283.979736,385.079132 2303.242676,384.999786 2322.994385,384.999786 
	C2282.064209,303.134247 2241.342285,221.685486 2200.501953,140.000000 
	C2181.188232,140.000000 2161.702881,140.094299 2142.220459,139.909225 
	C2138.887939,139.877579 2137.369629,141.046692 2135.947021,143.900940 
	C2102.854980,210.299423 2069.664795,276.648743 2036.494507,343.008179 
	C2029.607544,356.785950 2022.727783,370.567230 2015.518311,385.000000 
	C2024.976318,385.000000 2033.738159,385.000000 2043.500000,385.000000 
M1164.959717,455.313568 
	C1163.083496,462.918243 1161.207153,470.522919 1159.330933,478.127563 
	C1159.017456,478.078613 1158.703979,478.029633 1158.390625,477.980652 
	C1155.437866,465.700134 1152.485107,453.419647 1149.527588,441.119324 
	C1145.073853,441.119324 1140.770142,441.119324 1136.215820,441.119324 
	C1132.924805,453.496765 1129.646118,465.828217 1126.367432,478.159668 
	C1123.394287,469.186401 1121.385742,460.417084 1119.267944,451.674255 
	C1118.411255,448.137634 1118.344971,442.945679 1116.073120,441.581482 
	C1113.145996,439.823944 1108.365234,441.153534 1104.415527,441.153534 
	C1108.409912,456.399475 1112.283813,471.655334 1116.433228,486.835876 
	C1118.682983,495.066345 1118.894775,495.008240 1127.888794,495.000244 
	C1129.527100,494.998779 1131.165405,495.000000 1132.488770,495.000000 
	C1135.719482,483.391785 1138.826904,472.226471 1141.934448,461.061188 
	C1144.709351,467.627716 1146.458008,474.119080 1147.991821,480.660828 
	C1151.441895,495.374084 1151.398682,495.386566 1164.958984,494.959351 
	C1165.259155,494.949890 1165.552246,494.715820 1165.900879,494.563690 
	C1170.854126,476.806274 1175.816162,459.017548 1180.841919,441.000336 
	C1177.310913,441.000336 1173.949951,440.720062 1170.677979,441.137604 
	C1169.360474,441.305725 1167.556885,442.787537 1167.158569,444.046143 
	C1166.095093,447.406433 1165.673706,450.969849 1164.959717,455.313568 
M1955.042603,484.535126 
	C1960.240234,479.011292 1960.200195,472.171692 1960.023193,465.231598 
	C1959.721558,453.398285 1953.282471,445.568512 1942.899414,441.644104 
	C1933.045288,437.919586 1923.124268,439.036285 1914.476318,446.023193 
	C1906.457397,452.502014 1904.440430,461.062347 1904.891846,470.925812 
	C1905.247192,478.685272 1908.422363,485.047211 1914.175537,489.464905 
	C1927.324951,499.561493 1944.627075,497.719147 1955.042603,484.535126 
M2074.000000,467.511902 
	C2072.654785,453.751312 2068.050049,445.084686 2055.190430,442.293915 
	C2045.887573,440.274994 2035.980103,441.041473 2026.193848,440.558472 
	C2026.193848,459.184357 2026.193848,476.889526 2026.193848,495.000000 
	C2032.816772,495.000000 2039.265015,494.761047 2045.689819,495.047607 
	C2061.046631,495.732697 2073.151123,485.574829 2074.000000,467.511902 
M1663.677856,441.000183 
	C1662.785767,441.777374 1661.121948,442.547852 1661.115112,443.332794 
	C1660.966187,460.437775 1661.001465,477.544342 1661.001465,494.999146 
	C1669.558594,494.999146 1677.771362,495.720337 1685.771973,494.729034 
	C1690.583130,494.132904 1695.711060,491.685333 1699.560913,488.635956 
	C1708.095581,481.875946 1709.880249,472.581757 1708.131592,461.936096 
	C1706.083740,449.467834 1695.707153,441.215149 1684.141479,441.019775 
	C1677.646606,440.910004 1671.148560,441.000000 1663.677856,441.000183 
M2138.033691,467.451324 
	C2144.783691,458.953003 2141.088379,444.434387 2130.604248,442.311798 
	C2121.097900,440.387146 2111.067871,441.048553 2101.242188,440.568512 
	C2101.242188,459.270233 2101.242188,476.985382 2101.242188,494.762329 
	C2105.222412,494.762329 2108.955811,494.762329 2113.010254,494.762329 
	C2113.010254,487.763489 2113.010254,480.996155 2113.010254,472.716095 
	C2115.140137,474.287048 2116.639893,474.947418 2117.462646,476.093689 
	C2119.141846,478.432831 2120.867676,480.882996 2121.846191,483.554169 
	C2125.146484,492.562836 2130.764893,497.342743 2140.805664,494.977295 
	C2141.059570,494.917480 2141.290771,494.760162 2141.956055,494.452393 
	C2137.890625,487.501068 2133.864014,480.615662 2130.066162,474.121460 
	C2132.701904,471.951965 2135.095459,469.981689 2138.033691,467.451324 
M1467.000000,478.701660 
	C1467.000000,477.220001 1467.000000,475.738342 1467.000000,474.308533 
	C1471.528076,473.011139 1472.495605,476.280731 1474.017456,478.969757 
	C1478.855347,487.517639 1481.762451,498.755371 1495.709595,494.989166 
	C1495.980225,494.916138 1496.242432,494.812347 1496.830444,494.614746 
	C1492.644287,487.452942 1488.503052,480.367767 1484.339233,473.244141 
	C1491.308838,471.257721 1495.829590,465.527649 1496.000000,458.649750 
	C1496.206787,450.313049 1492.463257,443.319824 1485.243530,442.229431 
	C1475.736938,440.793701 1465.975952,441.042358 1456.233398,440.562317 
	C1456.233398,459.225830 1456.233398,476.954224 1456.233398,494.767975 
	C1459.872803,494.767975 1463.275024,494.767975 1467.000000,494.767975 
	C1467.000000,489.581604 1467.000000,484.620819 1467.000000,478.701660 
M1621.001465,492.574585 
	C1621.858032,493.380127 1622.664062,494.806213 1623.579956,494.880554 
	C1626.993530,495.157715 1630.443237,494.991241 1634.133911,494.991241 
	C1633.887573,493.652222 1633.850220,492.822327 1633.580688,492.076263 
	C1628.413086,477.771729 1623.104736,463.516785 1618.067505,449.166656 
	C1614.522827,439.068451 1614.677612,438.953125 1604.269897,440.083923 
	C1603.120117,440.208801 1601.472778,441.253021 1601.104858,442.255707 
	C1594.702271,459.704346 1588.464111,477.213226 1582.132202,494.869904 
	C1583.053833,494.924164 1583.693848,494.959625 1584.333618,494.999878 
	C1590.598022,495.394135 1596.951416,496.051819 1597.683594,486.995453 
	C1597.743774,486.250092 1599.725830,485.126831 1600.845093,485.089752 
	C1606.662964,484.897247 1612.490723,485.000122 1618.370850,485.000122 
	C1619.263428,487.312378 1620.114014,489.516083 1621.001465,492.574585 
M1252.504761,486.003937 
	C1247.337646,471.518280 1242.187988,457.026337 1236.962769,442.561646 
	C1236.621704,441.617126 1235.736694,440.199982 1235.042969,440.163116 
	C1231.229980,439.960419 1227.289673,439.625641 1223.632324,440.427551 
	C1222.387939,440.700409 1221.851074,444.153564 1220.970093,446.144257 
	C1220.004883,448.325439 1218.854248,450.439056 1218.063110,452.680481 
	C1213.110352,466.711884 1208.235596,480.770691 1203.272339,495.000000 
	C1204.474976,495.000000 1205.484741,494.895325 1206.466553,495.017151 
	C1212.625366,495.781403 1217.849121,495.326233 1218.471069,487.274475 
	C1218.536255,486.431000 1220.735474,485.152771 1221.985718,485.102844 
	C1227.799072,484.870758 1233.626831,485.000092 1239.368774,485.000092 
	C1244.206909,497.110077 1240.561035,495.229675 1255.341309,494.558838 
	C1254.525757,491.857758 1253.745239,489.272644 1252.504761,486.003937 
M1020.456299,495.000000 
	C1022.493408,495.000000 1024.530518,495.000000 1026.863037,495.000000 
	C1021.108887,478.934753 1015.753662,463.331848 1009.908020,447.914886 
	C1006.579407,439.136322 1006.209167,439.175293 996.506104,440.120514 
	C995.249390,440.242950 993.607788,441.768341 993.076721,443.034790 
	C991.035645,447.902679 989.367249,452.927216 987.572144,457.897736 
	C983.132141,470.191467 978.698914,482.487610 974.184631,494.999969 
	C975.408325,494.999969 976.244568,494.934998 977.068054,495.010345 
	C983.187500,495.570038 988.858337,495.602753 989.526306,487.208893 
	C989.591919,486.384033 991.800110,485.174011 993.069092,485.100739 
	C997.550354,484.841949 1002.064331,485.170563 1006.549011,484.943024 
	C1009.807678,484.777679 1011.572021,485.542664 1012.142090,489.172607 
	C1012.745239,493.012817 1014.503174,496.348846 1020.456299,495.000000 
M1352.389160,488.925598 
	C1359.468262,496.401062 1368.285645,497.604065 1377.456177,494.664581 
	C1384.703491,492.341583 1388.716553,487.573486 1389.099731,479.291351 
	C1389.422241,472.321747 1385.375122,467.440796 1378.391846,464.983551 
	C1373.868896,463.392059 1369.371094,461.721985 1364.910156,459.965088 
	C1361.839111,458.755646 1361.232300,455.883514 1362.205322,453.403259 
	C1362.798340,451.891510 1365.115234,450.613556 1366.905273,450.109436 
	C1370.243286,449.169434 1372.837524,450.676086 1374.937500,453.504608 
	C1375.817139,454.689301 1377.554077,455.706085 1379.015991,455.890747 
	C1381.932983,456.259186 1384.929199,455.999939 1387.929443,455.999939 
	C1388.224731,451.126251 1386.936279,447.509430 1383.295288,444.670593 
	C1375.860718,438.873932 1363.263550,438.099274 1355.439453,443.204193 
	C1347.570190,448.338715 1346.285767,463.004028 1355.437866,467.766357 
	C1360.492676,470.396606 1366.099121,471.969330 1371.464844,473.998230 
	C1375.215698,475.416534 1377.885742,479.262756 1376.750610,481.665833 
	C1375.033691,485.300537 1369.120239,487.246277 1365.815552,484.865845 
	C1363.857666,483.455597 1362.515747,481.190216 1360.787354,479.182190 
	C1357.158569,479.182190 1353.187744,479.182190 1348.154175,479.182190 
	C1349.541626,482.580872 1350.718384,485.463287 1352.389160,488.925598 
M2245.967041,482.265137 
	C2250.822021,468.553680 2255.677002,454.842224 2260.578125,441.000000 
	C2257.720215,441.000000 2254.865967,441.283569 2252.093750,440.928802 
	C2248.562988,440.476990 2247.291016,442.015167 2246.275146,445.190979 
	C2242.540283,456.865997 2238.476562,468.435852 2234.180420,481.095825 
	C2233.161865,478.981628 2232.455811,477.823975 2232.023926,476.571808 
	C2228.318848,465.832611 2224.713135,455.058685 2220.927246,444.348236 
	C2220.475830,443.070679 2219.214111,441.268463 2218.172607,441.156738 
	C2214.515381,440.764404 2210.790527,441.004486 2206.946045,441.004486 
	C2213.138184,457.934326 2219.160400,474.108185 2224.913330,490.377136 
	C2226.047852,493.585541 2227.291016,495.173462 2231.020996,495.095551 
	C2240.671875,494.893982 2240.665039,495.079559 2244.180420,485.517273 
	C2244.510498,484.618652 2245.089111,483.811218 2245.967041,482.265137 
M2315.223145,471.948822 
	C2315.575928,469.120178 2315.928467,466.291534 2316.337402,463.013123 
	C2309.894043,463.013123 2304.142578,463.013123 2298.203613,463.013123 
	C2298.203613,458.545532 2298.203613,454.475037 2298.203613,450.006042 
	C2304.788086,450.006042 2311.205322,450.006042 2317.803223,450.006042 
	C2317.803223,446.537811 2317.803223,443.467316 2317.803223,440.198792 
	C2307.206543,440.198792 2296.801270,440.198792 2286.198242,440.198792 
	C2286.198242,458.465424 2286.198242,476.533295 2286.198242,494.800598 
	C2296.800049,494.800598 2307.205078,494.800598 2317.803955,494.800598 
	C2317.803955,491.533997 2317.803955,488.463470 2317.803955,484.995178 
	C2311.206543,484.995178 2304.789307,484.995178 2298.202637,484.995178 
	C2298.202637,480.526337 2298.202637,476.455841 2298.202637,471.996429 
	C2303.686768,471.996429 2308.976318,471.996429 2315.223145,471.948822 
M1554.312744,494.999725 
	C1560.263062,492.993134 1555.336792,488.454895 1557.425415,484.949768 
	C1550.156860,484.949768 1543.741699,484.949768 1537.225830,484.949768 
	C1537.225830,480.478241 1537.225830,476.407593 1537.225830,471.944153 
	C1543.189209,471.944153 1548.940552,471.944153 1554.775513,471.944153 
	C1554.775513,468.807495 1554.775513,466.071106 1554.775513,462.941406 
	C1548.814575,462.941406 1543.064209,462.941406 1537.230469,462.941406 
	C1537.230469,458.468781 1537.230469,454.398071 1537.230469,449.935120 
	C1543.865234,449.935120 1550.281860,449.935120 1556.768555,449.935120 
	C1556.768555,446.463196 1556.768555,443.392029 1556.768555,440.234009 
	C1546.131714,440.234009 1535.727539,440.234009 1525.231689,440.234009 
	C1525.231689,458.536255 1525.231689,476.603607 1525.231689,495.000000 
	C1534.753174,495.000000 1544.046875,495.000000 1554.312744,494.999725 
M1295.003662,493.279419 
	C1295.765015,493.852386 1296.498657,494.870544 1297.292480,494.919708 
	C1300.400269,495.112030 1303.527100,494.998291 1307.000000,494.998291 
	C1307.000000,491.959991 1307.193359,489.317413 1306.961426,486.712646 
	C1306.393555,480.334167 1307.709229,474.563812 1310.920166,468.925323 
	C1315.987915,460.026184 1320.526611,450.825867 1325.683960,441.000946 
	C1321.216553,441.000946 1317.612061,440.858215 1314.031738,441.090363 
	C1312.995850,441.157532 1311.574097,442.068878 1311.106567,442.988373 
	C1308.419189,448.274017 1305.982544,453.686615 1303.417603,459.035309 
	C1302.922485,460.067627 1302.235474,461.007812 1301.637085,461.990540 
	C1300.759155,461.007751 1299.601440,460.160156 1299.050171,459.019501 
	C1296.188110,453.096252 1293.480835,447.098267 1290.770508,441.236450 
	C1286.204590,441.236450 1281.834351,441.236450 1277.169189,441.236450 
	C1279.660889,446.293762 1281.621338,451.277985 1284.413696,455.741760 
	C1291.347656,466.825836 1297.130981,478.125122 1295.003052,491.817230 
	C1294.977783,491.979889 1295.000000,492.149933 1295.003662,493.279419 
M1764.029175,470.667603 
	C1769.151123,460.980835 1774.273193,451.294098 1779.716187,441.000336 
	C1775.245239,441.000336 1771.918213,440.880737 1768.607910,441.064514 
	C1767.431763,441.129791 1765.652100,441.618683 1765.247437,442.449738 
	C1762.659424,447.763641 1760.415649,453.244049 1757.965820,458.627350 
	C1757.417358,459.832520 1756.499268,460.869568 1755.751343,461.984009 
	C1754.839233,461.044647 1753.607178,460.259308 1753.068237,459.140228 
	C1750.212158,453.209900 1747.530273,447.195679 1744.758789,441.146790 
	C1740.310547,441.146790 1735.900024,441.146790 1730.867920,441.146790 
	C1733.530762,445.991821 1736.111084,450.407684 1738.427856,454.957733 
	C1744.132324,466.161743 1751.465454,476.895752 1749.043213,490.556610 
	C1748.799438,491.931061 1749.155273,493.411896 1749.225342,494.702087 
	C1753.343506,494.702087 1757.080078,494.702087 1761.000000,494.702087 
	C1761.000000,492.262238 1760.945312,490.117126 1761.010620,487.975739 
	C1761.182617,482.327209 1759.826294,476.397644 1764.029175,470.667603 
M1878.269043,441.003540 
	C1865.645386,441.003540 1853.021729,441.003540 1840.200928,441.003540 
	C1840.200928,444.118622 1840.200928,446.855225 1840.200928,449.990417 
	C1844.773438,449.990417 1849.192261,449.990417 1853.994995,449.990417 
	C1853.994995,465.124146 1853.994995,479.867615 1853.994995,494.801697 
	C1858.131470,494.801697 1861.869263,494.801697 1866.005615,494.801697 
	C1866.005615,479.866943 1866.005615,465.123474 1866.005615,449.989807 
	C1870.805420,449.989807 1875.226440,449.989807 1880.335938,449.989807 
	C1879.928345,446.710541 1879.576660,443.880676 1878.269043,441.003540 
M1070.483887,495.000000 
	C1074.258667,495.000000 1078.033447,495.000000 1081.719482,495.000000 
	C1081.719482,491.700256 1081.719482,488.961578 1081.719482,485.835938 
	C1076.034546,485.835938 1070.620605,485.835938 1064.833130,485.835938 
	C1064.833130,470.696075 1064.833130,455.954346 1064.833130,441.284363 
	C1060.692261,441.284363 1056.952026,441.284363 1053.282959,441.284363 
	C1053.282959,459.305420 1053.282959,477.040771 1053.282959,495.000000 
	C1058.872314,495.000000 1064.181519,495.000000 1070.483887,495.000000 
M2172.645508,494.999695 
	C2175.724365,494.999695 2178.803223,494.999695 2181.742920,494.999695 
	C2181.742920,476.651825 2181.742920,458.959595 2181.742920,441.245331 
	C2177.751709,441.245331 2174.022461,441.245331 2170.001465,441.245331 
	C2170.001465,458.557312 2169.979492,475.625671 2170.072998,492.693390 
	C2170.077148,493.463776 2171.126709,494.228485 2172.645508,494.999695 
z"/>
<path fill="#000000" opacity="1.000000" stroke="none" 
	d="
M262.545898,1.000000 
	C272.773865,4.322033 280.058441,9.953420 283.184113,20.455858 
	C287.486969,34.913544 278.653076,51.002445 264.030884,53.959908 
	C251.535675,56.487164 238.851288,58.165859 226.461487,61.108032 
	C204.928482,66.221413 184.854843,74.964027 165.882217,86.473808 
	C148.469894,97.037003 132.546036,109.414536 118.555351,124.101494 
	C104.878380,138.459122 93.213486,154.363907 83.499977,171.789185 
	C73.015450,190.597610 65.486488,210.439728 60.438999,231.254684 
	C58.726128,238.318237 57.727703,245.614380 57.081276,252.864731 
	C55.771133,267.559265 71.392937,282.188416 86.026695,282.133026 
	C161.679016,281.846680 237.333267,282.107239 312.986176,281.918365 
	C330.144104,281.875549 345.447113,275.642639 359.114532,265.381409 
	C368.928131,258.013611 376.426453,248.781235 382.129852,237.875000 
	C384.838715,232.695038 384.897705,228.233490 382.587921,222.947678 
	C371.413483,197.375870 363.234131,170.845413 359.090424,143.225769 
	C357.130707,130.163071 356.072601,116.945709 355.099213,103.762009 
	C354.549194,96.312637 354.302673,88.708801 355.156677,81.317490 
	C356.584656,68.958771 358.664856,56.645748 361.142944,44.450127 
	C362.449402,38.020367 368.323029,35.027069 374.289886,37.986450 
	C382.847931,42.230995 391.229706,47.088322 398.948944,52.699070 
	C407.779724,59.117744 415.746429,66.717484 424.256012,73.596893 
	C425.185822,74.348602 427.624451,74.352150 428.679565,73.660194 
	C441.115906,65.504562 454.682190,62.006065 469.548676,61.849907 
	C482.562958,61.713207 495.478455,61.735157 507.845154,66.112564 
	C513.834778,68.232689 519.399353,71.553528 525.627258,74.557892 
	C533.856323,67.694321 542.433960,59.864906 551.725281,53.001797 
	C559.311035,47.398502 567.435852,42.304108 575.906616,38.188000 
	C582.982483,34.749691 589.469727,38.502346 590.877747,46.235912 
	C592.967468,57.714134 594.609863,69.293686 595.900879,80.890419 
	C596.757263,88.582619 597.543457,96.463127 596.820068,104.113640 
	C595.244141,120.780624 593.247070,137.452118 590.390625,153.943100 
	C586.296204,177.581329 577.403809,199.883606 569.943298,222.584091 
	C566.046326,234.441666 564.940979,246.699768 566.794983,259.287415 
	C567.620422,264.892090 566.455688,270.790344 566.187805,276.555054 
	C566.141968,277.542175 565.992981,278.528961 566.010193,279.513855 
	C566.661316,316.834076 560.775574,353.111786 546.489624,387.587494 
	C539.693909,403.987366 531.056091,419.725739 522.146851,435.123871 
	C509.145233,457.595093 491.417084,476.387299 472.443237,493.876770 
	C458.609833,506.627960 443.312653,517.596069 426.964630,526.978699 
	C408.961914,537.311035 390.254395,546.108765 370.365753,552.244690 
	C354.153198,557.246521 337.787842,561.544006 320.809967,562.992920 
	C311.655518,563.774170 302.492615,564.456238 293.166748,565.591553 
	C287.311951,566.000000 281.623932,566.000000 275.301178,565.591553 
	C268.259705,564.788879 261.813141,564.716614 255.454865,563.930298 
	C243.869461,562.497620 232.142136,561.464966 220.821213,558.793884 
	C195.789566,552.887817 171.802734,544.010010 149.092957,531.673462 
	C125.230736,518.710876 103.752121,502.604309 84.401100,483.705566 
	C76.684395,476.169220 69.918045,467.639160 62.925880,459.386200 
	C51.516552,445.919586 42.195568,431.046143 33.884499,415.508789 
	C24.699533,398.337677 17.019623,380.511963 12.131855,361.668121 
	C8.819926,348.899658 6.622307,335.839478 4.019228,322.891083 
	C2.892205,317.284943 1.999269,311.631805 1.000000,306.000000 
	C1.000000,290.312439 1.000000,274.624878 1.391152,258.325287 
	C2.520584,252.577515 3.011324,247.391342 4.044983,242.315750 
	C6.806957,228.753632 9.251161,215.091309 12.829820,201.739014 
	C18.624205,180.119675 27.461243,159.594284 39.251472,140.600449 
	C47.920135,126.635391 57.256615,112.940582 67.653542,100.236771 
	C76.492607,89.436485 86.867744,79.771347 97.313400,70.444069 
	C106.733437,62.032608 116.877739,54.342953 127.225616,47.080105 
	C144.240982,35.137566 162.800110,25.808908 182.208054,18.529655 
	C199.646271,11.989185 217.483810,6.450229 236.093506,3.960535 
	C241.759613,3.202494 247.366165,1.999311 253.000000,1.000000 
	C256.030609,1.000000 259.061188,1.000000 262.545898,1.000000 
M447.500275,445.999695 
	C452.379456,440.456451 457.409943,435.038147 462.110260,429.347168 
	C477.962769,410.153442 490.227112,388.918091 497.420715,365.002777 
	C499.653564,357.579529 500.554169,349.729919 498.523773,342.084747 
	C494.745514,327.858032 478.505768,323.335815 466.679382,325.262726 
	C454.214111,327.293732 442.907166,332.651642 431.944489,338.934479 
	C406.632660,353.440948 386.625244,373.493835 370.012085,397.159149 
	C358.221039,413.955383 349.129578,432.222931 342.317078,451.523560 
	C339.138275,460.529388 335.705750,469.574097 337.841919,479.785706 
	C340.097443,490.567810 348.903381,499.843994 359.466858,498.700226 
	C367.098297,497.873932 374.778351,495.087952 381.842987,491.871796 
	C406.281799,480.746002 427.960449,465.472900 447.500275,445.999695 
M171.496216,365.997803 
	C168.665359,363.504089 165.849350,360.993256 163.001221,358.519409 
	C145.028717,342.908630 125.315155,330.321503 101.674431,325.439209 
	C91.930603,323.426910 82.347427,325.435333 74.940308,332.685394 
	C66.484451,340.961975 66.801376,351.468140 69.477341,361.853638 
	C73.010231,375.564819 78.793404,388.370392 85.861412,400.708740 
	C93.712135,414.413452 102.483696,427.456116 113.461838,438.700745 
	C123.440674,448.921844 134.057190,458.662537 145.268463,467.504425 
	C161.618744,480.399353 179.618118,490.766754 199.624466,497.081238 
	C208.551956,499.898956 216.938919,499.226624 223.920090,491.673187 
	C231.234085,483.759613 231.461807,474.170959 229.216141,465.017181 
	C226.567184,454.219574 222.402359,443.688782 217.930023,433.464325 
	C206.907532,408.265167 191.714264,385.797180 171.496216,365.997803 
M272.103424,426.629639 
	C285.567841,432.386017 297.303101,430.172607 303.663788,418.487061 
	C313.250671,400.874451 322.142456,382.785614 329.866913,364.288391 
	C335.965637,349.684235 322.582275,334.485992 308.488129,334.105560 
	C291.837250,333.656067 275.161469,333.801697 258.503693,334.096649 
	C251.746231,334.216309 246.199371,337.606995 242.003235,342.986542 
	C234.833496,352.178314 235.238525,361.731964 240.269882,371.760254 
	C247.045502,385.265167 253.477844,398.941986 260.181976,412.483368 
	C262.860870,417.894318 265.923798,423.097046 272.103424,426.629639 
z"/>
<path fill="#000000" opacity="1.000000" stroke="none" 
	d="
M2556.000000,188.531342 
	C2520.189941,189.000000 2484.379883,189.000000 2448.169922,189.000000 
	C2448.169922,254.293549 2448.169922,319.365692 2448.169922,384.718445 
	C2429.700684,384.718445 2411.628418,384.718445 2393.154297,384.718445 
	C2393.154297,319.690918 2393.154297,254.618744 2393.154297,189.146729 
	C2356.684814,189.146729 2320.611328,189.146729 2284.270020,189.146729 
	C2284.270020,172.676895 2284.270020,156.604828 2284.270020,140.000000 
	C2374.528320,140.000000 2464.795410,140.000000 2555.531250,140.000000 
	C2556.000000,156.020889 2556.000000,172.041794 2556.000000,188.531342 
z"/>
<path fill="#FFFFFF" opacity="1.000000" stroke="none" 
	d="
M1.000000,306.468658 
	C1.999269,311.631805 2.892205,317.284943 4.019228,322.891083 
	C6.622307,335.839478 8.819926,348.899658 12.131855,361.668121 
	C17.019623,380.511963 24.699533,398.337677 33.884499,415.508789 
	C42.195568,431.046143 51.516552,445.919586 62.925880,459.386200 
	C69.918045,467.639160 76.684395,476.169220 84.401100,483.705566 
	C103.752121,502.604309 125.230736,518.710876 149.092957,531.673462 
	C171.802734,544.010010 195.789566,552.887817 220.821213,558.793884 
	C232.142136,561.464966 243.869461,562.497620 255.454865,563.930298 
	C261.813141,564.716614 268.259705,564.788879 274.833252,565.591553 
	C183.741531,566.000000 92.483047,566.000000 1.000000,566.000000 
	C1.000000,479.645905 1.000000,393.291595 1.000000,306.468658 
z"/>
<path fill="#FFFFFF" opacity="1.000000" stroke="none" 
	d="
M252.531342,1.000000 
	C247.366165,1.999311 241.759613,3.202494 236.093506,3.960535 
	C217.483810,6.450229 199.646271,11.989185 182.208054,18.529655 
	C162.800110,25.808908 144.240982,35.137566 127.225616,47.080105 
	C116.877739,54.342953 106.733437,62.032608 97.313400,70.444069 
	C86.867744,79.771347 76.492607,89.436485 67.653542,100.236771 
	C57.256615,112.940582 47.920135,126.635391 39.251472,140.600449 
	C27.461243,159.594284 18.624205,180.119675 12.829820,201.739014 
	C9.251161,215.091309 6.806957,228.753632 4.044983,242.315750 
	C3.011324,247.391342 2.520584,252.577515 1.391152,257.856628 
	C1.000000,172.407013 1.000000,86.814018 1.000000,1.000000 
	C84.687431,1.000000 168.375061,1.000000 252.531342,1.000000 
z"/>
<path fill="#000000" opacity="1.000000" stroke="none" 
	d="
M1447.000000,323.000000 
	C1447.000000,343.805573 1447.000000,364.111145 1447.000000,384.708008 
	C1428.726318,384.708008 1410.658081,384.708008 1392.294189,384.708008 
	C1392.294189,303.410431 1392.294189,222.024933 1392.294189,140.227844 
	C1393.555786,140.158035 1394.983887,140.010132 1396.411865,140.009888 
	C1461.722656,139.998489 1527.035156,139.752029 1592.343262,140.170685 
	C1609.114746,140.278168 1624.680786,145.314484 1637.651611,157.022705 
	C1651.777466,169.773499 1658.816528,185.593002 1661.156372,204.261520 
	C1662.858887,217.843735 1662.133179,230.996338 1657.574951,243.787750 
	C1650.461304,263.750305 1637.432251,278.493988 1617.782593,287.037842 
	C1617.504517,287.158722 1617.290771,287.427826 1616.730103,287.887817 
	C1633.812622,319.985687 1650.929688,352.148224 1668.413452,385.000000 
	C1666.407959,385.000000 1664.998291,385.000000 1663.588623,385.000000 
	C1645.761475,385.000000 1627.934082,384.962372 1610.107178,385.040680 
	C1607.440308,385.052399 1605.670410,384.649475 1604.283447,381.869507 
	C1595.665894,364.597137 1586.825073,347.435822 1578.014893,330.259949 
	C1572.580566,319.665253 1567.069092,309.110107 1561.427246,298.218719 
	C1523.715210,298.218719 1485.643799,298.218719 1447.000000,298.218719 
	C1447.000000,306.305664 1447.000000,314.402832 1447.000000,323.000000 
M1601.630615,235.894058 
	C1605.522949,227.777466 1606.410889,219.179092 1604.898438,210.462143 
	C1603.751221,203.850983 1601.042114,197.557556 1595.622925,193.369141 
	C1588.940918,188.204727 1580.856445,186.091339 1572.510132,186.062698 
	C1532.019653,185.923798 1491.528442,185.998047 1451.037476,186.009048 
	C1449.765015,186.009399 1448.492432,186.143585 1447.274658,186.212280 
	C1447.274658,208.287445 1447.274658,230.022903 1447.274658,252.000000 
	C1449.351196,252.000000 1451.161011,252.000000 1452.970825,252.000000 
	C1492.795288,252.000000 1532.620117,251.900955 1572.443970,252.057953 
	C1585.042969,252.107605 1594.787354,247.606354 1601.630615,235.894058 
z"/>
<path fill="#000000" opacity="1.000000" stroke="none" 
	d="
M1759.016113,280.696167 
	C1761.355103,288.117279 1763.077637,295.368683 1766.133057,302.006561 
	C1772.116943,315.006714 1782.251221,324.319519 1794.802734,330.956848 
	C1810.882935,339.460083 1828.091431,342.840820 1846.267212,343.152710 
	C1865.374023,343.480652 1884.122925,342.280640 1902.303101,336.001251 
	C1916.951416,330.941650 1929.061279,322.668793 1935.379639,307.971436 
	C1937.573853,302.867432 1938.354736,297.155884 1939.898804,291.273132 
	C1956.530151,291.273132 1973.957397,291.273132 1991.988525,291.273132 
	C1991.899048,302.261841 1990.369141,313.017212 1986.228027,323.325867 
	C1975.635742,349.693817 1955.364868,365.554138 1929.814819,376.153534 
	C1915.536011,382.076996 1900.688232,385.293427 1885.630005,387.910950 
	C1880.962524,388.722321 1876.146973,388.731201 1871.392700,388.983917 
	C1863.978271,389.378021 1856.548584,390.093475 1849.142578,389.923065 
	C1822.892456,389.319000 1796.856201,386.744019 1772.231812,376.903931 
	C1743.631348,365.474915 1722.496338,346.308899 1710.845215,317.038818 
	C1701.863892,294.475616 1701.084595,271.071045 1702.196045,247.517426 
	C1702.981812,230.864456 1707.201782,214.618439 1715.124146,199.830185 
	C1727.608032,176.527222 1746.488892,160.197037 1770.923950,149.843231 
	C1784.549316,144.069839 1798.646240,139.832809 1813.097412,138.337799 
	C1831.962646,136.386139 1851.111572,135.503616 1870.042114,136.340256 
	C1888.047241,137.136032 1905.911621,140.571442 1923.093750,146.892319 
	C1941.013916,153.484756 1957.184814,162.716980 1970.150635,176.794800 
	C1980.857178,188.419373 1987.672974,202.231644 1989.942871,218.001022 
	C1990.777100,223.796692 1990.939453,229.689026 1991.428833,235.792023 
	C1972.884766,235.792023 1955.145508,235.792023 1937.057983,235.792023 
	C1937.463135,226.705170 1935.536621,218.312164 1930.383911,210.913315 
	C1922.542480,199.653320 1911.410522,192.740311 1898.532593,189.179733 
	C1888.156250,186.310867 1877.405884,184.602219 1866.721436,183.082352 
	C1846.362427,180.186249 1826.274414,182.004578 1806.937622,189.055161 
	C1780.895508,198.550568 1763.419800,216.251709 1759.303101,244.306442 
	C1757.579956,256.049225 1759.007202,268.254272 1759.016113,280.696167 
z"/>
<path fill="#000000" opacity="1.000000" stroke="none" 
	d="
M916.982178,388.000000 
	C904.357483,388.666687 892.161499,390.236511 880.033569,389.821167 
	C850.277222,388.802277 820.868591,385.246948 793.992920,370.960724 
	C766.227539,356.201538 748.636536,333.431366 740.940796,302.869507 
	C737.111938,287.663910 735.517700,272.240631 736.096863,256.683380 
	C737.096863,229.824890 743.675781,204.528931 760.617004,183.026733 
	C773.015442,167.290253 789.362854,156.681168 807.771240,148.908615 
	C823.094177,142.438904 839.183777,138.908417 855.472534,137.285889 
	C871.427490,135.696609 887.637878,135.545349 903.675293,136.217087 
	C920.811157,136.934875 937.733398,140.187210 954.101929,145.593796 
	C974.832214,152.441101 993.235901,163.154388 1007.405273,180.027634 
	C1017.441101,191.978455 1023.650452,205.825134 1025.011963,221.597626 
	C1025.406006,226.162445 1025.936279,230.715515 1026.443848,235.661621 
	C1008.040405,235.661621 990.176086,235.661621 972.191528,235.661621 
	C971.850830,225.876495 969.647339,216.851364 963.536255,208.950989 
	C955.801147,198.951065 945.387573,192.758072 933.734619,189.233536 
	C923.606262,186.170120 912.967285,184.514008 902.435425,183.153671 
	C893.952637,182.057968 885.241821,181.573181 876.721069,182.143661 
	C851.971741,183.800720 828.745544,189.794891 810.840942,208.672501 
	C801.825317,218.178101 795.820557,229.496567 794.198669,242.355667 
	C791.942444,260.242950 791.427124,278.151917 797.845337,295.682953 
	C803.162415,310.206299 813.076233,320.648926 825.559570,328.738556 
	C837.593140,336.536682 851.212402,340.449249 865.466492,341.990723 
	C872.113281,342.709503 878.776978,343.911987 885.422607,343.846069 
	C894.415039,343.756866 903.478088,343.196106 912.364807,341.863708 
	C924.759766,340.005219 936.987732,337.306335 948.171631,331.041107 
	C960.471558,324.150726 969.208984,314.596619 972.714905,300.700775 
	C972.835083,300.224579 972.929688,299.738678 972.992554,299.251678 
	C974.057556,291.000214 974.056030,291.000000 982.290833,291.000000 
	C996.617676,291.000000 1010.944580,291.000000 1025.648560,291.000000 
	C1026.963379,301.079773 1024.962036,310.668396 1022.024780,320.172058 
	C1018.107666,332.845917 1010.879700,343.653351 1001.545776,352.661407 
	C990.940369,362.896484 978.488220,370.613159 964.614319,376.192230 
	C949.367676,382.323395 933.604370,385.819702 916.982178,388.000000 
z"/>
<path fill="#000000" opacity="1.000000" stroke="none" 
	d="
M1096.267578,292.307922 
	C1121.772949,241.453568 1147.046021,190.907135 1172.499146,140.000473 
	C1192.381592,140.000473 1212.512939,139.921768 1232.640381,140.163986 
	C1234.101074,140.181564 1236.095947,142.247986 1236.896729,143.838028 
	C1254.564331,178.921219 1272.093384,214.074158 1289.659180,249.208618 
	C1311.686890,293.267456 1333.725342,337.320953 1355.749390,381.381653 
	C1356.235962,382.355316 1356.605591,383.387390 1357.178711,384.745056 
	C1336.715942,384.745056 1316.638428,384.745056 1296.529419,384.745056 
	C1288.947998,369.262512 1281.321045,353.686981 1273.639526,338.000000 
	C1245.062866,338.000000 1216.573975,338.000000 1188.085083,338.000000 
	C1170.254517,338.000000 1152.423584,338.070221 1134.593994,337.937073 
	C1131.273193,337.912323 1129.420410,338.628418 1127.873047,342.002380 
	C1121.840454,355.156555 1115.246094,368.051880 1109.048828,381.132660 
	C1107.674683,384.033234 1106.059448,385.128235 1102.741699,385.090942 
	C1085.413818,384.896027 1068.082520,385.000000 1050.079102,385.000000 
	C1065.499146,354.001434 1080.767212,323.308655 1096.267578,292.307922 
M1185.500000,293.000000 
	C1207.493164,293.000000 1229.486328,293.000000 1251.356323,293.000000 
	C1235.010010,257.594482 1218.668579,222.199707 1202.097168,186.306381 
	C1185.306396,222.318420 1168.857178,257.597778 1152.350708,293.000000 
	C1163.176758,293.000000 1173.838379,293.000000 1185.500000,293.000000 
z"/>
<path fill="#000000" opacity="1.000000" stroke="none" 
	d="
M2043.000000,385.000000 
	C2033.738159,385.000000 2024.976318,385.000000 2015.518311,385.000000 
	C2022.727783,370.567230 2029.607544,356.785950 2036.494507,343.008179 
	C2069.664795,276.648743 2102.854980,210.299423 2135.947021,143.900940 
	C2137.369629,141.046692 2138.887939,139.877579 2142.220459,139.909225 
	C2161.702881,140.094299 2181.188232,140.000000 2200.501953,140.000000 
	C2241.342285,221.685486 2282.064209,303.134247 2322.994385,384.999786 
	C2303.242676,384.999786 2283.979736,385.079132 2264.720215,384.850220 
	C2263.167969,384.831787 2260.969971,383.027924 2260.207764,381.490692 
	C2253.642334,368.245789 2247.338867,354.871094 2240.954834,341.536285 
	C2239.835938,339.199585 2238.487549,337.889191 2235.382568,337.899078 
	C2189.235352,338.046051 2143.087158,338.001068 2096.939453,338.007996 
	C2096.445068,338.008087 2095.950928,338.095032 2095.261963,338.159668 
	C2087.772949,353.568329 2080.253662,369.039368 2072.496582,385.000000 
	C2063.033936,385.000000 2053.266846,385.000000 2043.000000,385.000000 
M2129.527832,293.000000 
	C2158.510742,293.000000 2187.493652,293.000000 2216.730469,293.000000 
	C2200.316895,257.443726 2183.981445,222.056641 2167.466797,186.281372 
	C2150.685059,222.270248 2134.322021,257.361694 2117.703857,293.000000 
	C2121.649414,293.000000 2125.094482,293.000000 2129.527832,293.000000 
z"/>
<path fill="#000000" opacity="1.000000" stroke="none" 
	d="
M1164.978516,454.883057 
	C1165.673706,450.969849 1166.095093,447.406433 1167.158569,444.046143 
	C1167.556885,442.787537 1169.360474,441.305725 1170.677979,441.137604 
	C1173.949951,440.720062 1177.310913,441.000336 1180.841919,441.000336 
	C1175.816162,459.017548 1170.854126,476.806274 1165.900879,494.563690 
	C1165.552246,494.715820 1165.259155,494.949890 1164.958984,494.959351 
	C1151.398682,495.386566 1151.441895,495.374084 1147.991821,480.660828 
	C1146.458008,474.119080 1144.709351,467.627716 1141.934448,461.061188 
	C1138.826904,472.226471 1135.719482,483.391785 1132.488770,495.000000 
	C1131.165405,495.000000 1129.527100,494.998779 1127.888794,495.000244 
	C1118.894775,495.008240 1118.682983,495.066345 1116.433228,486.835876 
	C1112.283813,471.655334 1108.409912,456.399475 1104.415527,441.153534 
	C1108.365234,441.153534 1113.145996,439.823944 1116.073120,441.581482 
	C1118.344971,442.945679 1118.411255,448.137634 1119.267944,451.674255 
	C1121.385742,460.417084 1123.394287,469.186401 1126.367432,478.159668 
	C1129.646118,465.828217 1132.924805,453.496765 1136.215820,441.119324 
	C1140.770142,441.119324 1145.073853,441.119324 1149.527588,441.119324 
	C1152.485107,453.419647 1155.437866,465.700134 1158.390625,477.980652 
	C1158.703979,478.029633 1159.017456,478.078613 1159.330933,478.127563 
	C1161.207153,470.522919 1163.083496,462.918243 1164.978516,454.883057 
z"/>
<path fill="#000000" opacity="1.000000" stroke="none" 
	d="
M1955.009033,484.906830 
	C1944.627075,497.719147 1927.324951,499.561493 1914.175537,489.464905 
	C1908.422363,485.047211 1905.247192,478.685272 1904.891846,470.925812 
	C1904.440430,461.062347 1906.457397,452.502014 1914.476318,446.023193 
	C1923.124268,439.036285 1933.045288,437.919586 1942.899414,441.644104 
	C1953.282471,445.568512 1959.721558,453.398285 1960.023193,465.231598 
	C1960.200195,472.171692 1960.240234,479.011292 1955.009033,484.906830 
M1928.139282,451.012085 
	C1918.574097,454.325745 1916.334839,461.675385 1916.954346,470.827209 
	C1917.380005,477.113434 1923.784546,484.325226 1929.989136,484.998993 
	C1938.671753,485.941864 1946.194824,480.902283 1947.970215,472.953918 
	C1950.091675,463.455780 1946.338745,454.886475 1938.182007,451.877625 
	C1935.394165,450.849335 1932.078491,451.251984 1928.139282,451.012085 
z"/>
<path fill="#000000" opacity="1.000000" stroke="none" 
	d="
M2074.000000,467.961639 
	C2073.151123,485.574829 2061.046631,495.732697 2045.689819,495.047607 
	C2039.265015,494.761047 2032.816772,495.000000 2026.193848,495.000000 
	C2026.193848,476.889526 2026.193848,459.184357 2026.193848,440.558472 
	C2035.980103,441.041473 2045.887573,440.274994 2055.190430,442.293915 
	C2068.050049,445.084686 2072.654785,453.751312 2074.000000,467.961639 
M2037.000000,474.478424 
	C2037.000000,477.908936 2037.000000,481.339478 2037.000000,484.927948 
	C2045.569580,484.903900 2053.949707,486.562073 2059.135498,477.565826 
	C2063.234619,470.454590 2062.724121,463.514801 2058.477051,457.142487 
	C2053.257324,449.311035 2045.008301,450.708008 2037.000000,451.298889 
	C2037.000000,458.906250 2037.000000,466.194580 2037.000000,474.478424 
z"/>
<path fill="#000000" opacity="1.000000" stroke="none" 
	d="
M1664.164795,441.000092 
	C1671.148560,441.000000 1677.646606,440.910004 1684.141479,441.019775 
	C1695.707153,441.215149 1706.083740,449.467834 1708.131592,461.936096 
	C1709.880249,472.581757 1708.095581,481.875946 1699.560913,488.635956 
	C1695.711060,491.685333 1690.583130,494.132904 1685.771973,494.729034 
	C1677.771362,495.720337 1669.558594,494.999146 1661.001465,494.999146 
	C1661.001465,477.544342 1660.966187,460.437775 1661.115112,443.332794 
	C1661.121948,442.547852 1662.785767,441.777374 1664.164795,441.000092 
M1691.987061,480.519836 
	C1697.553589,473.838867 1698.567017,466.042572 1694.028320,458.184509 
	C1688.861816,449.239075 1680.406616,450.908997 1672.232788,451.184357 
	C1672.232788,462.561310 1672.232788,473.622650 1672.232788,484.925568 
	C1679.080322,485.001495 1685.809937,485.920074 1691.987061,480.519836 
z"/>
<path fill="#000000" opacity="1.000000" stroke="none" 
	d="
M2137.761475,467.731384 
	C2135.095459,469.981689 2132.701904,471.951965 2130.066162,474.121460 
	C2133.864014,480.615662 2137.890625,487.501068 2141.956055,494.452393 
	C2141.290771,494.760162 2141.059570,494.917480 2140.805664,494.977295 
	C2130.764893,497.342743 2125.146484,492.562836 2121.846191,483.554169 
	C2120.867676,480.882996 2119.141846,478.432831 2117.462646,476.093689 
	C2116.639893,474.947418 2115.140137,474.287048 2113.010254,472.716095 
	C2113.010254,480.996155 2113.010254,487.763489 2113.010254,494.762329 
	C2108.955811,494.762329 2105.222412,494.762329 2101.242188,494.762329 
	C2101.242188,476.985382 2101.242188,459.270233 2101.242188,440.568512 
	C2111.067871,441.048553 2121.097900,440.387146 2130.604248,442.311798 
	C2141.088379,444.434387 2144.783691,458.953003 2137.761475,467.731384 
M2118.439453,465.000000 
	C2119.939209,464.999664 2121.448975,465.110168 2122.937012,464.978302 
	C2127.351807,464.587067 2129.304199,461.885986 2128.994385,456.672546 
	C2128.753662,452.612671 2126.451660,450.900024 2122.509766,450.986328 
	C2119.406494,451.054291 2116.300537,451.000000 2113.283936,451.000000 
	C2113.283936,455.980988 2113.283936,460.389709 2113.283936,465.000000 
	C2114.878662,465.000000 2116.190430,465.000000 2118.439453,465.000000 
z"/>
<path fill="#000000" opacity="1.000000" stroke="none" 
	d="
M1467.000000,479.180847 
	C1467.000000,484.620819 1467.000000,489.581604 1467.000000,494.767975 
	C1463.275024,494.767975 1459.872803,494.767975 1456.233398,494.767975 
	C1456.233398,476.954224 1456.233398,459.225830 1456.233398,440.562317 
	C1465.975952,441.042358 1475.736938,440.793701 1485.243530,442.229431 
	C1492.463257,443.319824 1496.206787,450.313049 1496.000000,458.649750 
	C1495.829590,465.527649 1491.308838,471.257721 1484.339233,473.244141 
	C1488.503052,480.367767 1492.644287,487.452942 1496.830444,494.614746 
	C1496.242432,494.812347 1495.980225,494.916138 1495.709595,494.989166 
	C1481.762451,498.755371 1478.855347,487.517639 1474.017456,478.969757 
	C1472.495605,476.280731 1471.528076,473.011139 1467.000000,474.308533 
	C1467.000000,475.738342 1467.000000,477.220001 1467.000000,479.180847 
M1470.589844,451.000000 
	C1468.483643,450.839569 1466.686890,450.739655 1466.935303,453.903564 
	C1467.216675,457.485199 1467.000122,461.105927 1467.000122,464.999451 
	C1470.925293,464.999451 1474.416748,465.317749 1477.824097,464.918549 
	C1482.041992,464.424377 1483.802124,461.213318 1483.928467,457.359192 
	C1484.053101,453.559662 1481.747559,451.396179 1478.008301,451.038116 
	C1475.868652,450.833252 1473.693359,451.000366 1470.589844,451.000000 
z"/>
<path fill="#000000" opacity="1.000000" stroke="none" 
	d="
M1620.983154,492.147186 
	C1620.114014,489.516083 1619.263428,487.312378 1618.370850,485.000122 
	C1612.490723,485.000122 1606.662964,484.897247 1600.845093,485.089752 
	C1599.725830,485.126831 1597.743774,486.250092 1597.683594,486.995453 
	C1596.951416,496.051819 1590.598022,495.394135 1584.333618,494.999878 
	C1583.693848,494.959625 1583.053833,494.924164 1582.132202,494.869904 
	C1588.464111,477.213226 1594.702271,459.704346 1601.104858,442.255707 
	C1601.472778,441.253021 1603.120117,440.208801 1604.269897,440.083923 
	C1614.677612,438.953125 1614.522827,439.068451 1618.067505,449.166656 
	C1623.104736,463.516785 1628.413086,477.771729 1633.580688,492.076263 
	C1633.850220,492.822327 1633.887573,493.652222 1634.133911,494.991241 
	C1630.443237,494.991241 1626.993530,495.157715 1623.579956,494.880554 
	C1622.664062,494.806213 1621.858032,493.380127 1620.983154,492.147186 
M1602.176636,474.655151 
	C1606.395874,474.655151 1610.615234,474.655151 1615.213501,474.655151 
	C1612.990356,468.601379 1610.887451,462.874878 1608.328491,455.906464 
	C1605.927734,462.706543 1603.971191,468.248627 1602.176636,474.655151 
z"/>
<path fill="#000000" opacity="1.000000" stroke="none" 
	d="
M1252.734741,486.345734 
	C1253.745239,489.272644 1254.525757,491.857758 1255.341309,494.558838 
	C1240.561035,495.229675 1244.206909,497.110077 1239.368774,485.000092 
	C1233.626831,485.000092 1227.799072,484.870758 1221.985718,485.102844 
	C1220.735474,485.152771 1218.536255,486.431000 1218.471069,487.274475 
	C1217.849121,495.326233 1212.625366,495.781403 1206.466553,495.017151 
	C1205.484741,494.895325 1204.474976,495.000000 1203.272339,495.000000 
	C1208.235596,480.770691 1213.110352,466.711884 1218.063110,452.680481 
	C1218.854248,450.439056 1220.004883,448.325439 1220.970093,446.144257 
	C1221.851074,444.153564 1222.387939,440.700409 1223.632324,440.427551 
	C1227.289673,439.625641 1231.229980,439.960419 1235.042969,440.163116 
	C1235.736694,440.199982 1236.621704,441.617126 1236.962769,442.561646 
	C1242.187988,457.026337 1247.337646,471.518280 1252.734741,486.345734 
M1233.137939,474.999908 
	C1234.046631,474.920166 1234.955322,474.840424 1236.195679,474.731598 
	C1233.928101,468.348236 1231.799683,462.356293 1229.417358,455.649475 
	C1227.037842,462.454254 1224.922485,468.503662 1222.650879,475.000000 
	C1226.309814,475.000000 1229.268311,475.000000 1233.137939,474.999908 
z"/>
<path fill="#000000" opacity="1.000000" stroke="none" 
	d="
M1020.002319,495.000000 
	C1014.503174,496.348846 1012.745239,493.012817 1012.142090,489.172607 
	C1011.572021,485.542664 1009.807678,484.777679 1006.549011,484.943024 
	C1002.064331,485.170563 997.550354,484.841949 993.069092,485.100739 
	C991.800110,485.174011 989.591919,486.384033 989.526306,487.208893 
	C988.858337,495.602753 983.187500,495.570038 977.068054,495.010345 
	C976.244568,494.934998 975.408325,494.999969 974.184631,494.999969 
	C978.698914,482.487610 983.132141,470.191467 987.572144,457.897736 
	C989.367249,452.927216 991.035645,447.902679 993.076721,443.034790 
	C993.607788,441.768341 995.249390,440.242950 996.506104,440.120514 
	C1006.209167,439.175293 1006.579407,439.136322 1009.908020,447.914886 
	C1015.753662,463.331848 1021.108887,478.934753 1026.863037,495.000000 
	C1024.530518,495.000000 1022.493408,495.000000 1020.002319,495.000000 
M995.033875,470.726013 
	C994.728760,472.055420 994.423645,473.384827 994.094238,474.820068 
	C998.549255,474.820068 1002.667236,474.820068 1007.107117,474.820068 
	C1004.884033,468.171021 1002.747742,461.781403 1000.500000,455.058624 
	C998.731750,460.323761 997.103333,465.172394 995.033875,470.726013 
z"/>
<path fill="#000000" opacity="1.000000" stroke="none" 
	d="
M1352.142090,488.635651 
	C1350.718384,485.463287 1349.541626,482.580872 1348.154175,479.182190 
	C1353.187744,479.182190 1357.158569,479.182190 1360.787354,479.182190 
	C1362.515747,481.190216 1363.857666,483.455597 1365.815552,484.865845 
	C1369.120239,487.246277 1375.033691,485.300537 1376.750610,481.665833 
	C1377.885742,479.262756 1375.215698,475.416534 1371.464844,473.998230 
	C1366.099121,471.969330 1360.492676,470.396606 1355.437866,467.766357 
	C1346.285767,463.004028 1347.570190,448.338715 1355.439453,443.204193 
	C1363.263550,438.099274 1375.860718,438.873932 1383.295288,444.670593 
	C1386.936279,447.509430 1388.224731,451.126251 1387.929443,455.999939 
	C1384.929199,455.999939 1381.932983,456.259186 1379.015991,455.890747 
	C1377.554077,455.706085 1375.817139,454.689301 1374.937500,453.504608 
	C1372.837524,450.676086 1370.243286,449.169434 1366.905273,450.109436 
	C1365.115234,450.613556 1362.798340,451.891510 1362.205322,453.403259 
	C1361.232300,455.883514 1361.839111,458.755646 1364.910156,459.965088 
	C1369.371094,461.721985 1373.868896,463.392059 1378.391846,464.983551 
	C1385.375122,467.440796 1389.422241,472.321747 1389.099731,479.291351 
	C1388.716553,487.573486 1384.703491,492.341583 1377.456177,494.664581 
	C1368.285645,497.604065 1359.468262,496.401062 1352.142090,488.635651 
z"/>
<path fill="#000000" opacity="1.000000" stroke="none" 
	d="
M2245.759766,482.613281 
	C2245.089111,483.811218 2244.510498,484.618652 2244.180420,485.517273 
	C2240.665039,495.079559 2240.671875,494.893982 2231.020996,495.095551 
	C2227.291016,495.173462 2226.047852,493.585541 2224.913330,490.377136 
	C2219.160400,474.108185 2213.138184,457.934326 2206.946045,441.004486 
	C2210.790527,441.004486 2214.515381,440.764404 2218.172607,441.156738 
	C2219.214111,441.268463 2220.475830,443.070679 2220.927246,444.348236 
	C2224.713135,455.058685 2228.318848,465.832611 2232.023926,476.571808 
	C2232.455811,477.823975 2233.161865,478.981628 2234.180420,481.095825 
	C2238.476562,468.435852 2242.540283,456.865997 2246.275146,445.190979 
	C2247.291016,442.015167 2248.562988,440.476990 2252.093750,440.928802 
	C2254.865967,441.283569 2257.720215,441.000000 2260.578125,441.000000 
	C2255.677002,454.842224 2250.822021,468.553680 2245.759766,482.613281 
z"/>
<path fill="#000000" opacity="1.000000" stroke="none" 
	d="
M2314.744629,471.972626 
	C2308.976318,471.996429 2303.686768,471.996429 2298.202637,471.996429 
	C2298.202637,476.455841 2298.202637,480.526337 2298.202637,484.995178 
	C2304.789307,484.995178 2311.206543,484.995178 2317.803955,484.995178 
	C2317.803955,488.463470 2317.803955,491.533997 2317.803955,494.800598 
	C2307.205078,494.800598 2296.800049,494.800598 2286.198242,494.800598 
	C2286.198242,476.533295 2286.198242,458.465424 2286.198242,440.198792 
	C2296.801270,440.198792 2307.206543,440.198792 2317.803223,440.198792 
	C2317.803223,443.467316 2317.803223,446.537811 2317.803223,450.006042 
	C2311.205322,450.006042 2304.788086,450.006042 2298.203613,450.006042 
	C2298.203613,454.475037 2298.203613,458.545532 2298.203613,463.013123 
	C2304.142578,463.013123 2309.894043,463.013123 2316.337402,463.013123 
	C2315.928467,466.291534 2315.575928,469.120178 2314.744629,471.972626 
z"/>
<path fill="#000000" opacity="1.000000" stroke="none" 
	d="
M1553.826660,494.999878 
	C1544.046875,495.000000 1534.753174,495.000000 1525.231689,495.000000 
	C1525.231689,476.603607 1525.231689,458.536255 1525.231689,440.234009 
	C1535.727539,440.234009 1546.131714,440.234009 1556.768555,440.234009 
	C1556.768555,443.392029 1556.768555,446.463196 1556.768555,449.935120 
	C1550.281860,449.935120 1543.865234,449.935120 1537.230469,449.935120 
	C1537.230469,454.398071 1537.230469,458.468781 1537.230469,462.941406 
	C1543.064209,462.941406 1548.814575,462.941406 1554.775513,462.941406 
	C1554.775513,466.071106 1554.775513,468.807495 1554.775513,471.944153 
	C1548.940552,471.944153 1543.189209,471.944153 1537.225830,471.944153 
	C1537.225830,476.407593 1537.225830,480.478241 1537.225830,484.949768 
	C1543.741699,484.949768 1550.156860,484.949768 1557.425415,484.949768 
	C1555.336792,488.454895 1560.263062,492.993134 1553.826660,494.999878 
z"/>
<path fill="#000000" opacity="1.000000" stroke="none" 
	d="
M1295.001953,492.797974 
	C1295.000000,492.149933 1294.977783,491.979889 1295.003052,491.817230 
	C1297.130981,478.125122 1291.347656,466.825836 1284.413696,455.741760 
	C1281.621338,451.277985 1279.660889,446.293762 1277.169189,441.236450 
	C1281.834351,441.236450 1286.204590,441.236450 1290.770508,441.236450 
	C1293.480835,447.098267 1296.188110,453.096252 1299.050171,459.019501 
	C1299.601440,460.160156 1300.759155,461.007751 1301.637085,461.990540 
	C1302.235474,461.007812 1302.922485,460.067627 1303.417603,459.035309 
	C1305.982544,453.686615 1308.419189,448.274017 1311.106567,442.988373 
	C1311.574097,442.068878 1312.995850,441.157532 1314.031738,441.090363 
	C1317.612061,440.858215 1321.216553,441.000946 1325.683960,441.000946 
	C1320.526611,450.825867 1315.987915,460.026184 1310.920166,468.925323 
	C1307.709229,474.563812 1306.393555,480.334167 1306.961426,486.712646 
	C1307.193359,489.317413 1307.000000,491.959991 1307.000000,494.998291 
	C1303.527100,494.998291 1300.400269,495.112030 1297.292480,494.919708 
	C1296.498657,494.870544 1295.765015,493.852386 1295.001953,492.797974 
z"/>
<path fill="#000000" opacity="1.000000" stroke="none" 
	d="
M1763.992188,471.059875 
	C1759.826294,476.397644 1761.182617,482.327209 1761.010620,487.975739 
	C1760.945312,490.117126 1761.000000,492.262238 1761.000000,494.702087 
	C1757.080078,494.702087 1753.343506,494.702087 1749.225342,494.702087 
	C1749.155273,493.411896 1748.799438,491.931061 1749.043213,490.556610 
	C1751.465454,476.895752 1744.132324,466.161743 1738.427856,454.957733 
	C1736.111084,450.407684 1733.530762,445.991821 1730.867920,441.146790 
	C1735.900024,441.146790 1740.310547,441.146790 1744.758789,441.146790 
	C1747.530273,447.195679 1750.212158,453.209900 1753.068237,459.140228 
	C1753.607178,460.259308 1754.839233,461.044647 1755.751343,461.984009 
	C1756.499268,460.869568 1757.417358,459.832520 1757.965820,458.627350 
	C1760.415649,453.244049 1762.659424,447.763641 1765.247437,442.449738 
	C1765.652100,441.618683 1767.431763,441.129791 1768.607910,441.064514 
	C1771.918213,440.880737 1775.245239,441.000336 1779.716187,441.000336 
	C1774.273193,451.294098 1769.151123,460.980835 1763.992188,471.059875 
z"/>
<path fill="#000000" opacity="1.000000" stroke="none" 
	d="
M1878.747070,441.027161 
	C1879.576660,443.880676 1879.928345,446.710541 1880.335938,449.989807 
	C1875.226440,449.989807 1870.805420,449.989807 1866.005615,449.989807 
	C1866.005615,465.123474 1866.005615,479.866943 1866.005615,494.801697 
	C1861.869263,494.801697 1858.131470,494.801697 1853.994995,494.801697 
	C1853.994995,479.867615 1853.994995,465.124146 1853.994995,449.990417 
	C1849.192261,449.990417 1844.773438,449.990417 1840.200928,449.990417 
	C1840.200928,446.855225 1840.200928,444.118622 1840.200928,441.003540 
	C1853.021729,441.003540 1865.645386,441.003540 1878.747070,441.027161 
z"/>
<path fill="#000000" opacity="1.000000" stroke="none" 
	d="
M1069.987305,495.000000 
	C1064.181519,495.000000 1058.872314,495.000000 1053.282959,495.000000 
	C1053.282959,477.040771 1053.282959,459.305420 1053.282959,441.284363 
	C1056.952026,441.284363 1060.692261,441.284363 1064.833130,441.284363 
	C1064.833130,455.954346 1064.833130,470.696075 1064.833130,485.835938 
	C1070.620605,485.835938 1076.034546,485.835938 1081.719482,485.835938 
	C1081.719482,488.961578 1081.719482,491.700256 1081.719482,495.000000 
	C1078.033447,495.000000 1074.258667,495.000000 1069.987305,495.000000 
z"/>
<path fill="#000000" opacity="1.000000" stroke="none" 
	d="
M2172.167480,494.997742 
	C2171.126709,494.228485 2170.077148,493.463776 2170.072998,492.693390 
	C2169.979492,475.625671 2170.001465,458.557312 2170.001465,441.245331 
	C2174.022461,441.245331 2177.751709,441.245331 2181.742920,441.245331 
	C2181.742920,458.959595 2181.742920,476.651825 2181.742920,494.999695 
	C2178.803223,494.999695 2175.724365,494.999695 2172.167480,494.997742 
z"/>
<path fill="#FFFFFF" opacity="1.000000" stroke="none" 
	d="
M447.250000,446.250000 
	C427.960449,465.472900 406.281799,480.746002 381.842987,491.871796 
	C374.778351,495.087952 367.098297,497.873932 359.466858,498.700226 
	C348.903381,499.843994 340.097443,490.567810 337.841919,479.785706 
	C335.705750,469.574097 339.138275,460.529388 342.317078,451.523560 
	C349.129578,432.222931 358.221039,413.955383 370.012085,397.159149 
	C386.625244,373.493835 406.632660,353.440948 431.944489,338.934479 
	C442.907166,332.651642 454.214111,327.293732 466.679382,325.262726 
	C478.505768,323.335815 494.745514,327.858032 498.523773,342.084747 
	C500.554169,349.729919 499.653564,357.579529 497.420715,365.002777 
	C490.227112,388.918091 477.962769,410.153442 462.110260,429.347168 
	C457.409943,435.038147 452.379456,440.456451 447.250000,446.250000 
z"/>
<path fill="#FFFFFF" opacity="1.000000" stroke="none" 
	d="
M171.746979,366.247253 
	C191.714264,385.797180 206.907532,408.265167 217.930023,433.464325 
	C222.402359,443.688782 226.567184,454.219574 229.216141,465.017181 
	C231.461807,474.170959 231.234085,483.759613 223.920090,491.673187 
	C216.938919,499.226624 208.551956,499.898956 199.624466,497.081238 
	C179.618118,490.766754 161.618744,480.399353 145.268463,467.504425 
	C134.057190,458.662537 123.440674,448.921844 113.461838,438.700745 
	C102.483696,427.456116 93.712135,414.413452 85.861412,400.708740 
	C78.793404,388.370392 73.010231,375.564819 69.477341,361.853638 
	C66.801376,351.468140 66.484451,340.961975 74.940308,332.685394 
	C82.347427,325.435333 91.930603,323.426910 101.674431,325.439209 
	C125.315155,330.321503 145.028717,342.908630 163.001221,358.519409 
	C165.849350,360.993256 168.665359,363.504089 171.746979,366.247253 
z"/>
<path fill="#FFFFFF" opacity="1.000000" stroke="none" 
	d="
M271.835083,426.354431 
	C265.923798,423.097046 262.860870,417.894318 260.181976,412.483368 
	C253.477844,398.941986 247.045502,385.265167 240.269882,371.760254 
	C235.238525,361.731964 234.833496,352.178314 242.003235,342.986542 
	C246.199371,337.606995 251.746231,334.216309 258.503693,334.096649 
	C275.161469,333.801697 291.837250,333.656067 308.488129,334.105560 
	C322.582275,334.485992 335.965637,349.684235 329.866913,364.288391 
	C322.142456,382.785614 313.250671,400.874451 303.663788,418.487061 
	C297.303101,430.172607 285.567841,432.386017 271.835083,426.354431 
z"/>
<path fill="#FFFFFF" opacity="1.000000" stroke="none" 
	d="
M1601.343994,236.153107 
	C1594.787354,247.606354 1585.042969,252.107605 1572.443970,252.057953 
	C1532.620117,251.900955 1492.795288,252.000000 1452.970825,252.000000 
	C1451.161011,252.000000 1449.351196,252.000000 1447.274658,252.000000 
	C1447.274658,230.022903 1447.274658,208.287445 1447.274658,186.212280 
	C1448.492432,186.143585 1449.765015,186.009399 1451.037476,186.009048 
	C1491.528442,185.998047 1532.019653,185.923798 1572.510132,186.062698 
	C1580.856445,186.091339 1588.940918,188.204727 1595.622925,193.369141 
	C1601.042114,197.557556 1603.751221,203.850983 1604.898438,210.462143 
	C1606.410889,219.179092 1605.522949,227.777466 1601.343994,236.153107 
z"/>
<path fill="#FFFFFF" opacity="1.000000" stroke="none" 
	d="
M1185.000000,293.000000 
	C1173.838379,293.000000 1163.176758,293.000000 1152.350708,293.000000 
	C1168.857178,257.597778 1185.306396,222.318420 1202.097168,186.306381 
	C1218.668579,222.199707 1235.010010,257.594482 1251.356323,293.000000 
	C1229.486328,293.000000 1207.493164,293.000000 1185.000000,293.000000 
z"/>
<path fill="#FFFFFF" opacity="1.000000" stroke="none" 
	d="
M2129.033691,293.000000 
	C2125.094482,293.000000 2121.649414,293.000000 2117.703857,293.000000 
	C2134.322021,257.361694 2150.685059,222.270248 2167.466797,186.281372 
	C2183.981445,222.056641 2200.316895,257.443726 2216.730469,293.000000 
	C2187.493652,293.000000 2158.510742,293.000000 2129.033691,293.000000 
z"/>
<path fill="#FFFFFF" opacity="1.000000" stroke="none" 
	d="
M1928.571655,451.006439 
	C1932.078491,451.251984 1935.394165,450.849335 1938.182007,451.877625 
	C1946.338745,454.886475 1950.091675,463.455780 1947.970215,472.953918 
	C1946.194824,480.902283 1938.671753,485.941864 1929.989136,484.998993 
	C1923.784546,484.325226 1917.380005,477.113434 1916.954346,470.827209 
	C1916.334839,461.675385 1918.574097,454.325745 1928.571655,451.006439 
z"/>
<path fill="#FFFFFF" opacity="1.000000" stroke="none" 
	d="
M2037.000000,473.980652 
	C2037.000000,466.194580 2037.000000,458.906250 2037.000000,451.298889 
	C2045.008301,450.708008 2053.257324,449.311035 2058.477051,457.142487 
	C2062.724121,463.514801 2063.234619,470.454590 2059.135498,477.565826 
	C2053.949707,486.562073 2045.569580,484.903900 2037.000000,484.927948 
	C2037.000000,481.339478 2037.000000,477.908936 2037.000000,473.980652 
z"/>
<path fill="#FFFFFF" opacity="1.000000" stroke="none" 
	d="
M1691.707764,480.782410 
	C1685.809937,485.920074 1679.080322,485.001495 1672.232788,484.925568 
	C1672.232788,473.622650 1672.232788,462.561310 1672.232788,451.184357 
	C1680.406616,450.908997 1688.861816,449.239075 1694.028320,458.184509 
	C1698.567017,466.042572 1697.553589,473.838867 1691.707764,480.782410 
z"/>
<path fill="#FFFFFF" opacity="1.000000" stroke="none" 
	d="
M2117.970947,465.000000 
	C2116.190430,465.000000 2114.878662,465.000000 2113.283936,465.000000 
	C2113.283936,460.389709 2113.283936,455.980988 2113.283936,451.000000 
	C2116.300537,451.000000 2119.406494,451.054291 2122.509766,450.986328 
	C2126.451660,450.900024 2128.753662,452.612671 2128.994385,456.672546 
	C2129.304199,461.885986 2127.351807,464.587067 2122.937012,464.978302 
	C2121.448975,465.110168 2119.939209,464.999664 2117.970947,465.000000 
z"/>
<path fill="#FFFFFF" opacity="1.000000" stroke="none" 
	d="
M1471.062012,451.000000 
	C1473.693359,451.000366 1475.868652,450.833252 1478.008301,451.038116 
	C1481.747559,451.396179 1484.053101,453.559662 1483.928467,457.359192 
	C1483.802124,461.213318 1482.041992,464.424377 1477.824097,464.918549 
	C1474.416748,465.317749 1470.925293,464.999451 1467.000122,464.999451 
	C1467.000122,461.105927 1467.216675,457.485199 1466.935303,453.903564 
	C1466.686890,450.739655 1468.483643,450.839569 1471.062012,451.000000 
z"/>
<path fill="#FFFFFF" opacity="1.000000" stroke="none" 
	d="
M1602.095703,474.222931 
	C1603.971191,468.248627 1605.927734,462.706543 1608.328491,455.906464 
	C1610.887451,462.874878 1612.990356,468.601379 1615.213501,474.655151 
	C1610.615234,474.655151 1606.395874,474.655151 1602.095703,474.222931 
z"/>
<path fill="#FFFFFF" opacity="1.000000" stroke="none" 
	d="
M1232.682373,474.999939 
	C1229.268311,475.000000 1226.309814,475.000000 1222.650879,475.000000 
	C1224.922485,468.503662 1227.037842,462.454254 1229.417358,455.649475 
	C1231.799683,462.356293 1233.928101,468.348236 1236.195679,474.731598 
	C1234.955322,474.840424 1234.046631,474.920166 1232.682373,474.999939 
z"/>
<path fill="#FFFFFF" opacity="1.000000" stroke="none" 
	d="
M995.254395,470.373535 
	C997.103333,465.172394 998.731750,460.323761 1000.500000,455.058624 
	C1002.747742,461.781403 1004.884033,468.171021 1007.107117,474.820068 
	C1002.667236,474.820068 998.549255,474.820068 994.094238,474.820068 
	C994.423645,473.384827 994.728760,472.055420 995.254395,470.373535 
z"/>
</svg>