<svg width="47" height="46" viewBox="215 0 47 46" fill="none" xmlns="http://www.w3.org/2000/svg">
    <path d="M237.828 45.9932H238.437C251.006 45.9932 261.194 35.8332 261.194 23.3002V22.6934C261.194 10.1604 251.006 0.000427246 238.437 0.000427246H237.828C225.26 0.000427246 215.071 10.1604 215.071 22.6934V23.3002C215.071 35.8332 225.26 45.9932 237.828 45.9932Z" fill="#5EBE58"/>
    <path d="M251.58 21.8016C252.36 21.0256 252.892 20.0364 253.107 18.9591C253.323 17.8818 253.214 16.7648 252.793 15.7496C252.372 14.7344 251.658 13.8665 250.742 13.2559C249.826 12.6453 248.749 12.3193 247.648 12.3193C246.546 12.3193 245.469 12.6453 244.553 13.2559C243.637 13.8665 242.924 14.7344 242.503 15.7496C242.082 16.7648 241.972 17.8818 242.188 18.9591C242.404 20.0364 242.935 21.0256 243.715 21.8016C244.759 22.84 246.173 23.4231 247.648 23.4231C249.122 23.4231 250.536 22.84 251.58 21.8016Z" fill="white"/>
    <path d="M247.854 18.0683L246.089 14.367C246.905 13.9979 247.825 13.9244 248.69 14.1593C249.555 14.3942 250.31 14.9226 250.826 15.6536C251.342 16.3845 251.586 17.272 251.516 18.163C251.445 19.054 251.065 19.8926 250.441 20.5342C249.817 21.1757 248.988 21.58 248.097 21.6772C247.206 21.7744 246.309 21.5585 245.561 21.0667C244.813 20.5749 244.26 19.838 243.998 18.9833C243.736 18.1285 243.782 17.2094 244.127 16.3845L247.854 18.0683Z" fill="#231F20"/>
    <path d="M232.58 21.7979C233.358 21.0211 233.887 20.0319 234.101 18.9551C234.315 17.8784 234.205 16.7625 233.783 15.7485C233.361 14.7346 232.648 13.868 231.732 13.2583C230.817 12.6486 229.741 12.3232 228.64 12.3232C227.539 12.3232 226.463 12.6486 225.548 13.2583C224.632 13.868 223.919 14.7346 223.497 15.7485C223.075 16.7625 222.964 17.8784 223.179 18.9551C223.393 20.0319 223.922 21.0211 224.7 21.7979C225.748 22.8335 227.164 23.4145 228.64 23.4145C230.116 23.4145 231.532 22.8335 232.58 21.7979Z" fill="white"/>
    <path d="M228.838 18.0728L227.135 14.3715C227.955 14.016 228.875 13.9567 229.734 14.204C230.594 14.4512 231.341 14.9894 231.846 15.7261C232.35 16.4628 232.582 17.3519 232.501 18.2405C232.419 19.1291 232.03 19.9616 231.4 20.595C230.769 21.2283 229.937 21.6228 229.047 21.7106C228.156 21.7985 227.263 21.5742 226.521 21.0763C225.778 20.5784 225.233 19.8381 224.978 18.9826C224.724 18.1272 224.776 17.2101 225.127 16.389L228.838 18.0728Z" fill="#231F20"/>
    <path d="M243.472 33.8919C241.981 32.6423 240.096 31.9572 238.148 31.9572C236.2 31.9572 234.315 32.6423 232.824 33.8919C231.479 32.7833 230.508 31.2904 230.04 29.6143H246.271C245.8 31.2923 244.823 32.7855 243.472 33.8919Z" fill="#231F20"/>
    <path d="M230.025 29.6117C229.813 28.8869 229.7 28.1368 229.69 27.3818H246.591C246.581 28.1368 246.469 28.8869 246.257 29.6117H230.025Z" fill="white"/>
    <path d="M232.809 33.8927C234.3 32.6431 236.185 31.958 238.133 31.958C240.081 31.958 241.966 32.6431 243.457 33.8927C241.962 35.134 240.078 35.8136 238.133 35.8136C236.187 35.8136 234.304 35.134 232.809 33.8927Z" fill="#F60000"/>
</svg>