<svg width="47" height="46" viewBox="161 0 47 46" fill="none" xmlns="http://www.w3.org/2000/svg">
    <path d="M184.069 45.9932H184.677C197.246 45.9932 207.435 35.8332 207.435 23.3002V22.6934C207.435 10.1604 197.246 0.000427246 184.677 0.000427246H184.069C171.5 0.000427246 161.311 10.1604 161.311 22.6934V23.3002C161.311 35.8332 171.5 45.9932 184.069 45.9932Z" fill="#B6DA2F"/>
    <path d="M197.806 21.7684C198.586 20.9924 199.117 20.0032 199.333 18.9259C199.549 17.8486 199.439 16.7316 199.018 15.7164C198.597 14.7012 197.884 13.8333 196.968 13.2227C196.052 12.6121 194.975 12.2861 193.873 12.2861C192.772 12.2861 191.695 12.6121 190.779 13.2227C189.863 13.8333 189.149 14.7012 188.728 15.7164C188.307 16.7316 188.198 17.8486 188.414 18.9259C188.629 20.0032 189.161 20.9924 189.941 21.7684C190.985 22.8068 192.399 23.3899 193.873 23.3899C195.348 23.3899 196.762 22.8068 197.806 21.7684Z" fill="white"/>
    <path d="M194.078 18.0397L192.329 14.3384C193.152 13.9806 194.074 13.9209 194.937 14.1697C195.799 14.4185 196.547 14.9602 197.052 15.7009C197.556 16.4416 197.784 17.3348 197.698 18.2259C197.612 19.117 197.215 19.9499 196.578 20.5805C195.941 21.2111 195.103 21.5997 194.208 21.679C193.314 21.7584 192.42 21.5234 191.681 21.0149C190.942 20.5064 190.405 19.7563 190.162 18.8944C189.919 18.0325 189.986 17.1131 190.351 16.2953L194.078 18.0397Z" fill="#231F20"/>
    <path d="M178.804 21.7725C179.582 20.9957 180.112 20.0065 180.326 18.9297C180.54 17.853 180.429 16.7371 180.008 15.7232C179.586 14.7092 178.872 13.8426 177.957 13.2329C177.041 12.6232 175.965 12.2979 174.865 12.2979C173.764 12.2979 172.688 12.6232 171.772 13.2329C170.857 13.8426 170.143 14.7092 169.722 15.7232C169.3 16.7371 169.189 17.853 169.403 18.9297C169.617 20.0065 170.147 20.9957 170.925 21.7725C171.442 22.2889 172.056 22.6987 172.732 22.9782C173.408 23.2578 174.133 23.4016 174.865 23.4016C175.596 23.4016 176.321 23.2578 176.997 22.9782C177.673 22.6987 178.287 22.2889 178.804 21.7725Z" fill="white"/>
    <path d="M175.063 18.0421L173.314 14.3409C174.135 13.9784 175.058 13.914 175.922 14.1586C176.786 14.4033 177.538 14.9416 178.045 15.6804C178.553 16.4192 178.786 17.3119 178.703 18.2039C178.621 19.0958 178.228 19.9308 177.593 20.5642C176.957 21.1976 176.12 21.5895 175.226 21.672C174.331 21.7544 173.436 21.5223 172.695 21.0158C171.954 20.5093 171.414 19.7604 171.169 18.8987C170.923 18.037 170.988 17.1168 171.352 16.2977L175.063 18.0421Z" fill="#231F20"/>
    <path d="M184.372 35.1042C182.901 35.0837 181.484 34.5465 180.371 33.5873C179.371 32.755 178.65 31.6385 178.302 30.3866C178.275 30.292 178.266 30.1928 178.277 30.0948C178.288 29.9969 178.319 29.9021 178.367 29.8159C178.415 29.7298 178.48 29.6541 178.557 29.5932C178.635 29.5324 178.724 29.4875 178.82 29.4613C178.917 29.4337 179.018 29.4255 179.118 29.4373C179.218 29.4491 179.315 29.4807 179.403 29.5301C179.49 29.5795 179.567 29.6458 179.629 29.7251C179.691 29.8044 179.736 29.8952 179.763 29.9922C180.014 30.9353 180.544 31.7811 181.284 32.4193C182.141 33.1219 183.217 33.506 184.327 33.506C185.436 33.506 186.512 33.1219 187.369 32.4193C188.107 31.7858 188.637 30.9454 188.89 30.0074C188.943 29.8062 189.073 29.6341 189.253 29.5288C189.433 29.4236 189.647 29.3938 189.849 29.4461C190.05 29.4984 190.223 29.6285 190.328 29.8077C190.434 29.9869 190.464 30.2006 190.411 30.4018C190.062 31.6521 189.334 32.7644 188.327 33.5873C187.234 34.5491 185.83 35.0874 184.372 35.1042Z" fill="#231F20"/>
</svg>