<svg width="47" height="46" viewBox="107 0 47 46" fill="none" xmlns="http://www.w3.org/2000/svg">
    <path d="M130.294 45.9932H130.903C143.471 45.9932 153.66 35.8332 153.66 23.3002V22.6934C153.66 10.1604 143.471 0.000427246 130.903 0.000427246H130.294C117.726 0.000427246 107.537 10.1604 107.537 22.6934V23.3002C107.537 35.8332 117.726 45.9932 130.294 45.9932Z" fill="#FFB42F"/>
    <path d="M144.03 21.9051C144.81 21.1292 145.342 20.1399 145.558 19.0626C145.774 17.9853 145.664 16.8683 145.243 15.8531C144.822 14.8379 144.108 13.97 143.193 13.3594C142.277 12.7488 141.2 12.4229 140.098 12.4229C138.996 12.4229 137.919 12.7488 137.003 13.3594C136.087 13.97 135.374 14.8379 134.953 15.8531C134.532 16.8683 134.422 17.9853 134.638 19.0626C134.854 20.1399 135.386 21.1292 136.166 21.9051C136.681 22.4211 137.294 22.8305 137.969 23.1098C138.644 23.3891 139.367 23.5329 140.098 23.5329C140.829 23.5329 141.552 23.3891 142.227 23.1098C142.902 22.8305 143.514 22.4211 144.03 21.9051Z" fill="white"/>
    <path d="M140.303 18.1894L138.554 14.4729C139.376 14.1134 140.297 14.0514 141.16 14.2977C142.023 14.544 142.772 15.0831 143.278 15.8219C143.784 16.5606 144.016 17.4526 143.933 18.3435C143.849 19.2344 143.457 20.0682 142.822 20.7009C142.188 21.3336 141.351 21.7254 140.458 21.8084C139.564 21.8915 138.67 21.6606 137.929 21.1558C137.188 20.651 136.648 19.9039 136.401 19.0437C136.154 18.1835 136.216 17.2643 136.576 16.4449L140.303 18.1894Z" fill="#231F20"/>
    <path d="M125.03 21.9051C125.81 21.1292 126.342 20.1399 126.558 19.0626C126.774 17.9853 126.664 16.8683 126.243 15.8531C125.822 14.8379 125.108 13.97 124.193 13.3594C123.277 12.7488 122.2 12.4229 121.098 12.4229C119.996 12.4229 118.919 12.7488 118.003 13.3594C117.087 13.97 116.374 14.8379 115.953 15.8531C115.532 16.8683 115.422 17.9853 115.638 19.0626C115.854 20.1399 116.386 21.1292 117.166 21.9051C117.681 22.4211 118.294 22.8305 118.969 23.1098C119.644 23.3891 120.367 23.5329 121.098 23.5329C121.829 23.5329 122.552 23.3891 123.227 23.1098C123.902 22.8305 124.514 22.4211 125.03 21.9051Z" fill="white"/>
    <path d="M121.288 18.1895L119.539 14.4731C120.364 14.1039 121.294 14.0353 122.165 14.2793C123.036 14.5234 123.793 15.0645 124.305 15.8084C124.817 16.5523 125.051 17.4518 124.967 18.35C124.882 19.2483 124.483 20.0884 123.841 20.7239C123.199 21.3594 122.353 21.7499 121.452 21.8274C120.55 21.9049 119.65 21.6645 118.908 21.1481C118.166 20.6316 117.63 19.8719 117.392 19.0014C117.154 18.1309 117.23 17.2047 117.607 16.3844L121.288 18.1895Z" fill="#231F20"/>
    <path d="M123.981 33.4951H137.23C137.785 33.4951 138.234 33.0469 138.234 32.494V32.4788C138.234 31.9259 137.785 31.4776 137.23 31.4776H123.981C123.426 31.4776 122.977 31.9259 122.977 32.4788V32.494C122.977 33.0469 123.426 33.4951 123.981 33.4951Z" fill="#231F20"/>
</svg>