<svg width="46" height="46" viewBox="0 0 46 46" fill="none" xmlns="http://www.w3.org/2000/svg">
    <path d="M22.7581 45.9932H23.3666C35.9352 45.9932 46.124 35.8332 46.124 23.3002V22.6934C46.124 10.1604 35.9352 0.000427246 23.3666 0.000427246H22.7581C10.1895 0.000427246 0.000701904 10.1604 0.000701904 22.6934V23.3002C0.000701904 35.8332 10.1895 45.9932 22.7581 45.9932Z" fill="#F60000"/>
    <path d="M35.6134 14.0928C36.2979 14.7045 36.8198 15.4757 37.1326 16.3376C37.4454 17.1995 37.5394 18.1251 37.4061 19.032C37.2728 19.9389 36.9165 20.7988 36.3688 21.5349C35.8212 22.271 35.0993 22.8605 34.2676 23.2507C33.4359 23.6409 32.5202 23.8197 31.6024 23.7711C30.6845 23.7226 29.7929 23.4482 29.0073 22.9724C28.2217 22.4966 27.5664 21.8343 27.0999 21.0446C26.6334 20.2548 26.3703 19.3622 26.334 18.4463L35.6134 14.0928Z" fill="white"/>
    <path d="M32.083 18.2528L30.151 16.6449L33.9389 14.8701C34.7431 15.3743 35.3319 16.1572 35.5921 17.0682C35.8522 17.9792 35.7653 18.954 35.348 19.8049C34.9308 20.6559 34.2127 21.3229 33.3319 21.6777C32.4511 22.0324 31.4699 22.0498 30.577 21.7266C29.8476 21.4649 29.2153 20.9881 28.7642 20.3594C28.3132 19.7308 28.0647 18.9802 28.0518 18.2073L32.083 18.2528Z" fill="#231F20"/>
    <path d="M9.78305 14.0928C9.12093 14.7115 8.62097 15.4826 8.32693 16.3387C8.0329 17.1947 7.95373 18.1095 8.09638 19.0031C8.23902 19.8967 8.59912 20.7418 9.14516 21.4645C9.69121 22.1872 10.4066 22.7654 11.2286 23.1486C12.0506 23.5318 12.9543 23.7082 13.8606 23.6624C14.7669 23.6166 15.6481 23.3501 16.4271 22.8861C17.2061 22.4221 17.8592 21.7748 18.3293 21.0008C18.7993 20.2268 19.0719 19.3497 19.1233 18.4463L9.78305 14.0928Z" fill="white"/>
    <path d="M19.7021 30.0371C20.6554 29.2803 21.8379 28.8682 23.0564 28.8682C24.275 28.8682 25.4575 29.2803 26.4107 30.0371H19.7021Z" fill="white"/>
    <path d="M17.708 33.0697C18.0213 31.9695 18.6634 30.9906 19.5487 30.2634L19.7008 30.1572H26.4094L26.5615 30.2634C27.4471 30.9875 28.085 31.9681 28.387 33.0697H25.1772C24.5558 32.6401 23.8188 32.4075 23.0627 32.4022C22.3109 32.4048 21.578 32.6378 20.9634 33.0697H17.708Z" fill="#231F20"/>
    <path d="M13.8291 18.2528L10.6193 15.7044C10.782 15.3872 11.004 15.104 11.2734 14.8701L17.3583 17.6916C17.3808 17.8983 17.3808 18.1068 17.3583 18.3135C17.3583 18.3135 17.3583 18.3135 17.3583 18.4045C17.3382 18.7183 17.2821 19.0288 17.191 19.3298C17.191 19.3298 17.191 19.4209 17.191 19.4815C17.0828 19.766 16.9397 20.0361 16.765 20.2855L16.5977 20.513C16.4348 20.7182 16.2513 20.9063 16.0501 21.0743L15.8675 21.2411C15.5991 21.433 15.3078 21.5909 15.0004 21.7114H14.8939H14.6657L14.3311 21.8024H13.9356H13.1902H12.8099L12.46 21.7114H12.247H12.1405C11.8316 21.5942 11.54 21.436 11.2734 21.2411C11.2056 21.1936 11.1442 21.1375 11.0909 21.0743C10.8896 20.9063 10.7061 20.7182 10.5433 20.513L10.3759 20.2855C10.2012 20.0361 10.0581 19.766 9.94997 19.4815V19.3298C9.8624 19.0286 9.81133 18.7179 9.79785 18.4045C9.79785 18.4045 9.79785 18.4045 9.79785 18.3135H13.9051L13.8291 18.2528Z" fill="#231F20"/>
    <path d="M19.7021 33.176C19.9967 32.5335 20.4701 31.989 21.0662 31.6072C21.6622 31.2254 22.3556 31.0225 23.064 31.0225C23.7724 31.0225 24.4659 31.2254 25.0619 31.6072C25.6579 31.989 26.1314 32.5335 26.4259 33.176H19.7021Z" fill="#F60000"/>
    <path d="M28.3876 33.0693C28.538 33.5611 28.6148 34.0722 28.6158 34.5862H17.4805C17.4893 34.0728 17.566 33.5628 17.7087 33.0693H28.3876Z" fill="white"/>
</svg>