<svg width="47" height="46" viewBox="53 0 47 46" fill="none" xmlns="http://www.w3.org/2000/svg">
    <path d="M76.5189 45.9932H77.1273C89.6959 45.9932 99.8848 35.8332 99.8848 23.3002V22.6934C99.8848 10.1604 89.6959 0.000427246 77.1273 0.000427246H76.5189C63.9503 0.000427246 53.7614 10.1604 53.7614 22.6934V23.3002C53.7614 35.8332 63.9503 45.9932 76.5189 45.9932Z" fill="#FF7D2F"/>
    <path d="M90.2244 21.7725C91.0022 20.9957 91.5316 20.0065 91.7458 18.9297C91.9599 17.853 91.8491 16.7371 91.4275 15.7232C91.0058 14.7092 90.2922 13.8426 89.3768 13.2329C88.4614 12.6232 87.3853 12.2979 86.2845 12.2979C85.1836 12.2979 84.1075 12.6232 83.1921 13.2329C82.2767 13.8426 81.5631 14.7092 81.1414 15.7232C80.7198 16.7371 80.609 17.853 80.8232 18.9297C81.0373 20.0065 81.5667 20.9957 82.3445 21.7725C83.3928 22.8081 84.8088 23.3892 86.2845 23.3892C87.7601 23.3892 89.1761 22.8081 90.2244 21.7725Z" fill="white"/>
    <path d="M86.5282 18.0421L84.7788 14.3409C85.6003 13.9784 86.523 13.914 87.3871 14.1586C88.2513 14.4033 89.0024 14.9416 89.5103 15.6804C90.0183 16.4192 90.251 17.3119 90.1683 18.2039C90.0856 19.0958 89.6926 19.9308 89.0574 20.5642C88.4222 21.1976 87.5849 21.5895 86.6904 21.672C85.7959 21.7544 84.9007 21.5233 84.1598 21.0158C83.4189 20.5093 82.879 19.7604 82.6336 18.8987C82.3883 18.037 82.4529 17.1168 82.8164 16.2977L86.5282 18.0421Z" fill="#231F20"/>
    <path d="M71.2559 21.7684C72.0358 20.9924 72.5674 20.0032 72.7832 18.9259C72.9991 17.8486 72.8896 16.7316 72.4686 15.7164C72.0476 14.7012 71.334 13.8333 70.4181 13.2227C69.5022 12.6121 68.4252 12.2861 67.3235 12.2861C66.2218 12.2861 65.1448 12.6121 64.2289 13.2227C63.3131 13.8333 62.5995 14.7012 62.1784 15.7164C61.7574 16.7316 61.6479 17.8486 61.8638 18.9259C62.0797 20.0032 62.6112 20.9924 63.3912 21.7684C64.4349 22.8068 65.8491 23.3899 67.3235 23.3899C68.7979 23.3899 70.2121 22.8068 71.2559 21.7684Z" fill="white"/>
    <path d="M67.5278 18.0421L65.7632 14.3409C66.5846 13.9784 67.5074 13.914 68.3715 14.1586C69.2357 14.4033 69.9868 14.9416 70.4947 15.6804C71.0026 16.4192 71.2354 17.3119 71.1527 18.2039C71.07 19.0958 70.677 19.9308 70.0418 20.5642C69.4066 21.1976 68.5692 21.5895 67.6748 21.672C66.7803 21.7544 65.885 21.5223 65.1441 21.0158C64.4032 20.5093 63.8634 19.7604 63.618 18.8987C63.3727 18.037 63.4373 17.1168 63.8008 16.2977L67.5278 18.0421Z" fill="#231F20"/>
    <path d="M71.4841 35.1041H71.2863C71.1891 35.0778 71.098 35.0325 71.0184 34.9709C70.9389 34.9092 70.8724 34.8324 70.8229 34.7449C70.7733 34.6574 70.7417 34.5609 70.7299 34.4611C70.718 34.3614 70.7262 34.2602 70.7539 34.1636C71.1117 32.8269 71.9021 31.6454 73.0024 30.8026C74.1027 29.9598 75.4513 29.5029 76.8388 29.5029C78.2262 29.5029 79.5748 29.9598 80.6751 30.8026C81.7754 31.6454 82.5659 32.8269 82.9236 34.1636C82.9801 34.3567 82.9574 34.5643 82.8604 34.7407C82.7634 34.917 82.6001 35.0478 82.4064 35.1041C82.3095 35.1317 82.2081 35.1398 82.108 35.128C82.008 35.1162 81.9112 35.0847 81.8235 35.0353C81.7357 34.9859 81.6587 34.9196 81.5969 34.8403C81.535 34.761 81.4896 34.6702 81.4633 34.5732C81.1783 33.5733 80.5741 32.6933 79.7423 32.0668C78.9105 31.4402 77.8964 31.1012 76.854 31.1012C75.8115 31.1012 74.7975 31.4402 73.9657 32.0668C73.1339 32.6933 72.5297 33.5733 72.2447 34.5732C72.1945 34.733 72.0926 34.8717 71.955 34.9678C71.8174 35.0638 71.6518 35.1117 71.4841 35.1041Z" fill="#231F20"/>
</svg>