<svg
    width="48"
    height="48"
    viewBox="0 0 48 48"
    xmlns="http://www.w3.org/2000/svg">

    <!-- Background -->
    <path
        d="M24.1,0C37.4,0,48.1,10.7,48.1,24s-10.7,24-24,24S0.1,37.3,0.1,24S10.9,0,24.1,0z"
        fill="#F1F1F1"/>

    <!-- Center line -->
    <path
        d="M24.5 26.8V25.3"
        stroke="#282828"
        stroke-width="1.5"
        stroke-linecap="round"
        fill="none"/>

    <!-- Circle -->
    <path
        d="M19.3 26.1c0-2.9 2.3-5.2 5.2-5.2s5.2 2.3 5.2 5.2-2.3 5.2-5.2 5.2-5.2-2.3-5.2-5.2z"
        stroke="#282828"
        stroke-width="1.5"
        fill="none"/>

    <!-- Lock top -->
    <path
        d="M27.8 22v-2.2c0-1.9-1.5-3.3-3.3-3.3s-3.3 1.5-3.3 3.3V22"
        stroke="#282828"
        stroke-width="1.5"
        stroke-linecap="round"
        fill="none"/>

    <!-- Outer arc -->
    <path
        d="M32.2 33.5c-2.1 1.7-4.8 2.8-7.8 2.8-6.8 0-12.3-5.5-12.3-12.3S17.6 11.8 24.4 11.8 36.7 17.2 36.7 24c0 .8-.1 1.6-.2 2.5"
        stroke="#282828"
        stroke-width="1.5"
        stroke-linecap="round"
        fill="none"/>

    <!-- Arrow -->
    <path
        d="M34.5 24.5c.5 1.1 1 2 1.5 3.2 1-.7 2.1-1.3 3.1-1.9"
        stroke="#282828"
        stroke-width="1.5"
        stroke-linecap="round"
        fill="none"/>

</svg>
