<svg width="21" height="21" viewBox="0 0 21 21" fill="none" xmlns="http://www.w3.org/2000/svg">
<path d="M18.6084 11.6067C17.4189 12.796 15.1808 12.7498 11.7492 12.7498C9.54142 12.7498 7.75138 10.9571 7.75024 8.74933C7.75024 5.32001 7.704 3.08065 8.89346 1.89138C10.0829 0.702118 10.6083 0.75027 15.8774 0.75027C16.3866 0.74809 16.6429 1.36389 16.2829 1.72394L13.5699 4.43714C12.8813 5.12582 12.8794 6.24233 13.5681 6.93092C14.2568 7.61952 15.3734 7.61959 16.0622 6.93109L18.7759 4.21855C19.136 3.85859 19.7519 4.11483 19.7497 4.62395C19.7497 9.89222 19.7979 10.4175 18.6084 11.6067Z" stroke="#282828" stroke-width="1.5"/>
<path d="M11.75 12.75L5.57842 18.9216C4.47386 20.0261 2.683 20.0261 1.57843 18.9216C0.473857 17.817 0.473858 16.0261 1.57843 14.9216L7.75 8.75" stroke="#282828" stroke-width="1.5" stroke-linecap="round"/>
<path d="M3.75896 16.75H3.75" stroke="#282828" stroke-width="2" stroke-linecap="round" stroke-linejoin="round"/>
</svg>
