<svg width="48" height="48" viewBox="0 0 48 48" fill="none" xmlns="http://www.w3.org/2000/svg">
<rect width="48" height="48" rx="24" fill="#F1F1F1"/>
<path d="M34 24C34 18.4772 29.5228 14 24 14C18.4772 14 14 18.4772 14 24C14 29.5228 18.4772 34 24 34C29.5228 34 34 29.5228 34 24Z" stroke="#282828" stroke-width="1.5"/>
<path d="M32 17.699C31.0653 17.7664 29.8681 18.1282 29.0379 19.2028C27.5385 21.1436 26.039 21.3056 25.0394 20.6586C23.5399 19.6882 24.8 18.1164 23.0401 17.2622C21.8931 16.7054 21.7332 15.1905 22.3716 14" stroke="#282828" stroke-width="1.5" stroke-linejoin="round"/>
<path d="M14 23C14.7625 23.6621 15.8305 24.2682 17.0887 24.2682C19.6884 24.2682 20.2084 24.7649 20.2084 26.7518C20.2084 28.7387 20.2084 28.7387 20.7283 30.2288C21.0665 31.1981 21.1847 32.1674 20.5106 33" stroke="#282828" stroke-width="1.5" stroke-linejoin="round"/>
<path d="M34 25.4523C33.1129 24.9411 32 24.7308 30.8734 25.5405C28.7177 27.0898 27.2314 25.806 26.5619 27.0889C25.5765 28.9775 29.0957 29.5711 26 34" stroke="#282828" stroke-width="1.5" stroke-linejoin="round"/>
</svg>
