<svg width="48" height="48" viewBox="0 0 48 48" fill="none" xmlns="http://www.w3.org/2000/svg">
<rect width="48" height="48" rx="24" fill="#F1F1F1"/>
<path d="M25 14.0472C24.6711 14.016 24.3375 14 24 14C18.4778 14 14 18.2836 14 23.5667C14 26.1051 15.0333 28.4115 16.7189 30.1231C17.09 30.5 17.3378 31.0148 17.2378 31.5448C17.0727 32.4112 16.6987 33.2194 16.1511 33.893C17.592 34.161 19.0901 33.9197 20.375 33.2364C20.8292 32.9949 21.0563 32.8741 21.2165 32.8496C21.3768 32.8251 21.6063 32.8682 22.0654 32.9545C22.7032 33.0742 23.3507 33.1343 24 33.1334C28.83 33.1334 33.0653 29.8565 34 25.5" stroke="#282828" stroke-width="1.5" stroke-linecap="round" stroke-linejoin="round"/>
<path d="M28.3913 20.0667L27.9657 19.4491H27.9657L28.3913 20.0667ZM32.6087 20.0667L33.0343 19.4491H33.0343L32.6087 20.0667ZM27.2771 22.1885L26.7216 22.6924H26.7216L27.2771 22.1885ZM33.7229 22.1885L33.1673 21.6846L33.7229 22.1885ZM28.3913 20.0667L28.8168 20.6843C29.8508 19.9719 31.1492 19.9719 32.1832 20.6843L32.6087 20.0667L33.0343 19.4491C31.4878 18.3836 29.5122 18.3836 27.9657 19.4491L28.3913 20.0667ZM28.7853 23V23.75H32.2147V23V22.25H28.7853V23ZM27.2771 22.1885L27.8327 21.6846C27.7223 21.5629 27.7535 21.5335 27.7499 21.5721C27.7492 21.579 27.7535 21.5242 27.8606 21.4029C28.0995 21.1324 28.4622 20.9286 28.8168 20.6843L28.3913 20.0667L27.9657 19.4491C27.7702 19.5839 27.1365 19.9567 26.7362 20.4101C26.5237 20.6508 26.2977 20.9948 26.2565 21.4311C26.2123 21.8991 26.3927 22.3297 26.7216 22.6924L27.2771 22.1885ZM32.6087 20.0667L32.1832 20.6843C32.5378 20.9286 32.9005 21.1324 33.1394 21.4029C33.2465 21.5242 33.2508 21.579 33.2501 21.5721C33.2465 21.5335 33.2777 21.5629 33.1673 21.6846L33.7229 22.1885L34.2784 22.6924C34.6073 22.3297 34.7877 21.8991 34.7435 21.4311C34.7023 20.9948 34.4763 20.6508 34.2638 20.4101C33.8635 19.9567 33.2298 19.5839 33.0343 19.4491L32.6087 20.0667ZM33.7229 22.1885L33.1673 21.6846C32.7916 22.0987 32.5007 22.25 32.2147 22.25V23V23.75C33.1306 23.75 33.7957 23.2245 34.2784 22.6924L33.7229 22.1885ZM27.2771 22.1885L26.7216 22.6924C27.2043 23.2245 27.8694 23.75 28.7853 23.75V23V22.25C28.4993 22.25 28.2083 22.0987 27.8327 21.6846L27.2771 22.1885ZM32.25 15.8H31.5C31.5 16.4 31.0325 16.85 30.5 16.85V17.6V18.35C31.9005 18.35 33 17.1883 33 15.8H32.25ZM30.5 17.6V16.85C29.9675 16.85 29.5 16.4 29.5 15.8H28.75H28C28 17.1883 29.0995 18.35 30.5 18.35V17.6ZM28.75 15.8H29.5C29.5 15.2 29.9675 14.75 30.5 14.75V14V13.25C29.0995 13.25 28 14.4117 28 15.8H28.75ZM30.5 14V14.75C31.0325 14.75 31.5 15.2 31.5 15.8H32.25H33C33 14.4117 31.9005 13.25 30.5 13.25V14Z" fill="#282828"/>
<path d="M23.9955 24H24.0045M20 24H20.009" stroke="#282828" stroke-width="2" stroke-linecap="round" stroke-linejoin="round"/>
</svg>
