<svg width="48" height="48" viewBox="0 0 48 48" fill="none" xmlns="http://www.w3.org/2000/svg">
<rect width="48" height="48" rx="24" fill="#F1F1F1"/>
<path d="M23.25 25.8C23.25 26.2142 23.5858 26.55 24 26.55C24.4142 26.55 24.75 26.2142 24.75 25.8H24L23.25 25.8ZM29.4 28.65C28.9858 28.65 28.65 28.9858 28.65 29.4C28.65 29.8142 28.9858 30.15 29.4 30.15V29.4V28.65ZM31.35 33C31.35 33.4142 31.6858 33.75 32.1 33.75C32.5142 33.75 32.85 33.4142 32.85 33H32.1H31.35ZM18.6 30.15C19.0142 30.15 19.35 29.8142 19.35 29.4C19.35 28.9858 19.0142 28.65 18.6 28.65V29.4V30.15ZM15.15 33C15.15 33.4142 15.4858 33.75 15.9 33.75C16.3142 33.75 16.65 33.4142 16.65 33H15.9H15.15ZM15 25.05C14.5858 25.05 14.25 25.3858 14.25 25.8C14.25 26.2142 14.5858 26.55 15 26.55V25.8V25.05ZM17.7 26.55C18.1142 26.55 18.45 26.2142 18.45 25.8C18.45 25.3858 18.1142 25.05 17.7 25.05V25.8V26.55ZM30.3 25.05C29.8858 25.05 29.55 25.3858 29.55 25.8C29.55 26.2142 29.8858 26.55 30.3 26.55V25.8V25.05ZM33 26.55C33.4142 26.55 33.75 26.2142 33.75 25.8C33.75 25.3858 33.4142 25.05 33 25.05V25.8V26.55ZM30.3 21.45C29.8858 21.45 29.55 21.7858 29.55 22.2C29.55 22.6142 29.8858 22.95 30.3 22.95V22.2V21.45ZM33.75 18.6C33.75 18.1858 33.4142 17.85 33 17.85C32.5858 17.85 32.25 18.1858 32.25 18.6H33H33.75ZM17.7 22.95C18.1142 22.95 18.45 22.6142 18.45 22.2C18.45 21.7858 18.1142 21.45 17.7 21.45V22.2V22.95ZM15.75 18.6C15.75 18.1858 15.4142 17.85 15 17.85C14.5858 17.85 14.25 18.1858 14.25 18.6H15H15.75ZM20.7697 17.3303C21.0626 17.6232 21.5374 17.6232 21.8303 17.3303C22.1232 17.0374 22.1232 16.5626 21.8303 16.2697L21.3 16.8L20.7697 17.3303ZM20.0303 14.4697C19.7374 14.1768 19.2626 14.1768 18.9697 14.4697C18.6768 14.7626 18.6768 15.2374 18.9697 15.5303L19.5 15L20.0303 14.4697ZM26.1697 16.2697C25.8768 16.5626 25.8768 17.0374 26.1697 17.3303C26.4626 17.6232 26.9374 17.6232 27.2303 17.3303L26.7 16.8L26.1697 16.2697ZM29.0303 15.5303C29.3232 15.2374 29.3232 14.7626 29.0303 14.4697C28.7374 14.1768 28.2626 14.1768 27.9697 14.4697L28.5 15L29.0303 15.5303ZM24 22.2L23.25 22.2L23.25 25.8L24 25.8H24.75L24.75 22.2H24ZM30.3 24.9H29.55C29.55 29.1456 26.9007 32.25 24 32.25V33V33.75C28.0581 33.75 31.05 29.6014 31.05 24.9H30.3ZM24 33V32.25C21.0993 32.25 18.45 29.1456 18.45 24.9H17.7H16.95C16.95 29.6014 19.9419 33.75 24 33.75V33ZM17.7 24.9H18.45C18.45 20.6544 21.0993 17.55 24 17.55V16.8V16.05C19.9419 16.05 16.95 20.1986 16.95 24.9H17.7ZM24 16.8V17.55C26.9007 17.55 29.55 20.6544 29.55 24.9H30.3H31.05C31.05 20.1986 28.0581 16.05 24 16.05V16.8ZM29.4 29.4V30.15C29.8566 30.15 30.3271 30.395 30.7092 30.9044C31.0914 31.414 31.35 32.1525 31.35 33H32.1H32.85C32.85 31.8593 32.5042 30.7977 31.9092 30.0044C31.314 29.2109 30.4346 28.65 29.4 28.65V29.4ZM18.6 29.4V28.65C17.5654 28.65 16.686 29.2109 16.0908 30.0044C15.4958 30.7977 15.15 31.8593 15.15 33H15.9H16.65C16.65 32.1525 16.9086 31.414 17.2908 30.9044C17.6729 30.395 18.1434 30.15 18.6 30.15V29.4ZM15 25.8V26.55H17.7V25.8V25.05H15V25.8ZM30.3 25.8V26.55H33V25.8V25.05H30.3V25.8ZM30.3 22.2V22.95C31.3346 22.95 32.214 22.3891 32.8092 21.5956C33.4042 20.8023 33.75 19.7407 33.75 18.6H33H32.25C32.25 19.4475 31.9914 20.1859 31.6092 20.6956C31.2271 21.205 30.7566 21.45 30.3 21.45V22.2ZM17.7 22.2V21.45C17.2434 21.45 16.7729 21.205 16.3908 20.6956C16.0086 20.186 15.75 19.4475 15.75 18.6H15H14.25C14.25 19.7407 14.5958 20.8023 15.1908 21.5956C15.786 22.3891 16.6654 22.95 17.7 22.95V22.2ZM29.4 20.4L28.96 19.7927C27.4992 20.8511 25.8034 21.45 24 21.45V22.2V22.95C26.1471 22.95 28.1465 22.2344 29.84 21.0073L29.4 20.4ZM24 22.2V21.45C22.1966 21.45 20.5008 20.8511 19.04 19.7927L18.6 20.4L18.16 21.0073C19.8535 22.2344 21.8529 22.95 24 22.95V22.2ZM21.3 16.8L21.8303 16.2697L20.0303 14.4697L19.5 15L18.9697 15.5303L20.7697 17.3303L21.3 16.8ZM26.7 16.8L27.2303 17.3303L29.0303 15.5303L28.5 15L27.9697 14.4697L26.1697 16.2697L26.7 16.8Z" fill="#282828"/>
</svg>
