<svg width="167" height="167" viewBox="0 0 167 167" fill="none" xmlns="http://www.w3.org/2000/svg">
<path d="M83.5 5.21875C68.0175 5.21875 52.8826 9.80986 40.0093 18.4115C27.136 27.0132 17.1025 39.239 11.1776 53.5431C5.25267 67.8471 3.70244 83.5868 6.72294 98.7719C9.74344 113.957 17.199 127.905 28.1468 138.853C39.0947 149.801 53.043 157.257 68.2281 160.277C83.4132 163.298 99.1529 161.747 113.457 155.822C127.761 149.898 139.987 139.864 148.589 126.991C157.19 114.117 161.781 98.9826 161.781 83.5C161.756 62.7463 153.5 42.8498 138.825 28.1747C124.15 13.4996 104.254 5.24403 83.5 5.21875ZM83.5 26.0938C87.1875 26.0912 90.7928 27.1821 93.8603 29.2286C96.9277 31.2751 99.3194 34.1852 100.733 37.5909C102.146 40.9967 102.518 44.7451 101.801 48.3622C101.085 51.9793 99.3112 55.3026 96.7056 57.9118C94.1 60.521 90.7792 62.299 87.1631 63.0209C83.5471 63.7428 79.7981 63.3762 76.3904 61.9675C72.9827 60.5588 70.0692 58.1712 68.0184 55.1066C65.9676 52.0421 64.8717 48.4382 64.8691 44.7508C64.871 39.8077 66.8337 35.0673 70.3265 31.5696C73.8193 28.0719 78.557 26.1026 83.5 26.0938ZM55.5536 124.859C55.553 126.342 54.9652 127.764 53.9189 128.816C52.8726 129.867 51.4527 130.461 49.9696 130.469H38.8014C37.3183 130.461 35.8984 129.867 34.8521 128.816C33.8058 127.764 33.218 126.342 33.2174 124.859V120.684C35.4007 122.199 37.9961 123.01 40.6541 123.006H55.5536V124.859ZM60.2766 119.275L63.0164 111.838H104.375L106.932 119.275H60.2766ZM133.809 124.859C133.802 126.344 133.209 127.768 132.158 128.818C131.108 129.869 129.685 130.462 128.199 130.469H117.03C115.547 130.461 114.127 129.867 113.081 128.816C112.035 127.764 111.447 126.342 111.446 124.859V123.006H126.346C129.011 123.002 131.612 122.193 133.809 120.684V124.859ZM135.661 109.959C135.662 111.774 135.134 113.549 134.142 115.069C133.151 116.589 131.738 117.787 130.077 118.518C128.895 119.011 127.627 119.268 126.346 119.275H110.872L107.48 109.359C107.353 108.99 107.113 108.671 106.795 108.446C106.477 108.222 106.096 108.103 105.706 108.106H61.7117C61.3293 108.105 60.9559 108.222 60.6429 108.442C60.3298 108.662 60.0925 108.973 59.9635 109.333L56.3103 119.275H40.6541C39.3728 119.268 38.1052 119.011 36.9227 118.518C35.2617 117.79 33.8501 116.591 32.8624 115.07C31.8747 113.549 31.3541 111.773 31.3647 109.959C31.443 108.811 31.0776 90.0234 31.6257 89.5537C32.0524 87.9126 32.9397 86.4277 34.1828 85.2744C37.9403 82.1431 42.1153 78.49 44.1507 76.4286H38.2796C36.9463 76.4144 35.6725 75.8748 34.7348 74.927C33.797 73.9792 33.271 72.6997 33.271 71.3664C33.271 70.0331 33.797 68.7536 34.7348 67.8058C35.6725 66.858 36.9463 66.3184 38.2796 66.3042C41.0194 66.4869 46.2903 65.6519 48.6127 67.4523C50.2827 63.2773 52.2658 58.1891 53.7793 54.275C54.42 52.7093 55.4751 51.3476 56.8313 50.3362C58.1874 49.3249 59.7935 48.702 61.4769 48.5344C61.6789 49.7865 61.9933 51.0179 62.4163 52.2136H62.3902C61.2879 52.2111 60.2099 52.5376 59.2942 53.1512C58.3785 53.7648 57.6666 54.6376 57.2497 55.658C56.7278 56.9888 49.0041 76.1677 48.8475 76.4286H118.153C117.996 76.1677 110.22 56.9366 109.75 55.6058C109.325 54.5956 108.609 53.7342 107.694 53.1305C106.779 52.5267 105.706 52.2077 104.61 52.2136H104.584C105.007 51.0179 105.321 49.7865 105.523 48.5344C107.2 48.7 108.801 49.3162 110.156 50.3176C111.511 51.319 112.57 52.6684 113.221 54.2228C114.734 58.1891 116.743 63.2773 118.387 67.4523C120.736 65.678 125.928 66.4608 128.747 66.3042C130.089 66.3042 131.377 66.8376 132.326 67.7869C133.275 68.7362 133.809 70.0238 133.809 71.3664C133.809 72.709 133.275 73.9966 132.326 74.9459C131.377 75.8953 130.089 76.4286 128.747 76.4286H122.849C124.885 78.4639 129.034 82.117 132.713 85.1961C134.022 86.3488 134.958 87.8661 135.4 89.5537C135.922 90.0495 135.557 108.759 135.661 109.959Z" fill="#282828"/>
<path d="M128.225 89.4756H113.43C113.127 89.4785 112.83 89.5534 112.562 89.694C112.294 89.8347 112.064 90.0371 111.89 90.2845L106.906 97.7473C106.725 98.0299 106.621 98.3557 106.607 98.6912C106.593 99.0268 106.667 99.3602 106.824 99.6573C106.981 99.9545 107.213 100.205 107.498 100.383C107.783 100.561 108.11 100.66 108.446 100.67H120.762C121.987 100.668 123.2 100.426 124.331 99.9553C125.462 99.485 126.49 98.7964 127.355 97.9289C128.22 97.0614 128.906 96.032 129.373 94.8994C129.84 93.7669 130.079 92.5534 130.077 91.3282C130.075 90.8375 129.88 90.3673 129.533 90.0203C129.186 89.6732 128.715 89.4774 128.225 89.4756Z" fill="#282828"/>
<path d="M104.48 89.4756H62.5209C62.1841 89.4772 61.854 89.5694 61.5652 89.7425C61.2763 89.9156 61.0394 90.1633 60.8792 90.4596C60.7191 90.7558 60.6417 91.0897 60.655 91.4262C60.6684 91.7627 60.7721 92.0894 60.9552 92.372L65.9392 99.8348C66.1118 100.085 66.3412 100.292 66.6088 100.437C66.8763 100.582 67.1744 100.662 67.4787 100.67H99.5218C99.8304 100.665 100.133 100.587 100.406 100.442C100.678 100.297 100.912 100.088 101.087 99.8348L106.045 92.372C106.227 92.0891 106.329 91.7627 106.342 91.4267C106.355 91.0907 106.277 90.7575 106.117 90.4618C105.957 90.166 105.721 89.9185 105.433 89.7451C105.145 89.5716 104.816 89.4786 104.48 89.4756Z" fill="#282828"/>
<path d="M55.11 90.2845C54.9382 90.035 54.7083 89.831 54.4401 89.69C54.1719 89.5491 53.8734 89.4755 53.5704 89.4756H38.8014C38.5563 89.4739 38.3134 89.5204 38.0863 89.6126C37.8593 89.7047 37.6527 89.8407 37.4782 90.0128C37.3037 90.1848 37.1649 90.3895 37.0695 90.6153C36.9742 90.841 36.9243 91.0833 36.9226 91.3283C36.9206 92.5534 37.16 93.7669 37.6272 94.8995C38.0943 96.032 38.78 97.0615 39.6451 97.929C40.5101 98.7965 41.5376 99.485 42.6689 99.9553C43.8001 100.426 45.013 100.668 46.2381 100.67H58.5543C58.8938 100.669 59.2264 100.575 59.5167 100.399C59.8069 100.223 60.0439 99.9714 60.2021 99.6711C60.3603 99.3708 60.4338 99.0331 60.4147 98.6942C60.3956 98.3553 60.2847 98.028 60.0939 97.7473L55.11 90.2845Z" fill="#282828"/>
<path d="M79.6904 51.0132C80.0444 51.3643 80.5227 51.5612 81.0212 51.5612C81.5197 51.5612 81.998 51.3643 82.352 51.0132L92.2676 41.0976C92.6157 40.7478 92.8108 40.2743 92.8102 39.7808C92.8096 39.2874 92.6133 38.8143 92.2644 38.4654C91.9154 38.1165 91.4424 37.9202 90.9489 37.9196C90.4555 37.919 89.9819 38.1141 89.6321 38.4622L81.0212 47.0731L77.3681 43.42C77.195 43.2469 76.9896 43.1096 76.7635 43.016C76.5374 42.9223 76.2951 42.8741 76.0503 42.8741C75.8056 42.8741 75.5633 42.9223 75.3372 43.016C75.1111 43.1096 74.9056 43.2469 74.7326 43.42C74.5595 43.593 74.4223 43.7984 74.3286 44.0245C74.235 44.2506 74.1868 44.493 74.1868 44.7377C74.1868 44.9824 74.235 45.2248 74.3286 45.4509C74.4223 45.6769 74.5595 45.8824 74.7326 46.0554L79.6904 51.0132Z" fill="#282828"/>
</svg>
