<svg width="48" height="48" viewBox="0 0 48 48" fill="none" xmlns="http://www.w3.org/2000/svg">
<rect width="48" height="48" rx="24" fill="#F1F1F1"/>
<path d="M32 27V25.5M16 27V19C16 17.1144 16 16.1716 16.5858 15.5858C17.1716 15 18.1144 15 20 15H23" stroke="#282828" stroke-width="1.5" stroke-linecap="round" stroke-linejoin="round"/>
<path d="M30 21.7143V23M30 21.7143C28.8432 21.7143 27.8241 21.1461 27.2263 20.2833M30 21.7143C31.1568 21.7143 32.1759 21.1461 32.7737 20.2833M30 15.2857C31.1569 15.2857 32.1761 15.854 32.7738 16.7169M30 15.2857C28.8431 15.2857 27.8239 15.854 27.2262 16.7169M30 15.2857V14M34 15.9286L32.7738 16.7169M26.0004 21.0714L27.2263 20.2833M26 15.9286L27.2262 16.7169M33.9996 21.0714L32.7737 20.2833M32.7738 16.7169C33.1273 17.2271 33.3333 17.8403 33.3333 18.5C33.3333 19.1597 33.1272 19.773 32.7737 20.2833M27.2262 16.7169C26.8727 17.2271 26.6667 17.8403 26.6667 18.5C26.6667 19.1597 26.8728 19.773 27.2263 20.2833" stroke="#282828" stroke-width="1.5" stroke-linecap="round"/>
<path d="M15.4976 28.0154L16.0195 27H31.9518L32.5023 28.0154C33.9452 30.677 34.3046 32.0077 33.7561 33.0039C33.2077 34 31.7536 34 28.8454 34L19.1546 34C16.2464 34 14.7923 34 14.2439 33.0039C13.6954 32.0077 14.0547 30.677 15.4976 28.0154Z" stroke="#282828" stroke-width="1.5" stroke-linecap="round" stroke-linejoin="round"/>
</svg>
