<svg width="48" height="48" viewBox="0 0 48 48" fill="none" xmlns="http://www.w3.org/2000/svg">
    <!-- Arka plan -->
    <rect width="48" height="48" rx="24" fill="#F1F1F1"/>

    <!-- Dış kare -->
    <path d="M14.5 24C14.5 19.5217 14.5 17.2825 15.8912 15.8912C17.2825 14.5 19.5217 14.5 24 14.5C28.4783 14.5 30.7175 14.5 32.1088 15.8912C33.5 17.2825 33.5 19.5217 33.5 24C33.5 28.4783 33.5 30.7175 32.1088 32.1088C30.7175 33.5 28.4783 33.5 24 33.5C19.5217 33.5 17.2825 33.5 15.8912 32.1088C14.5 30.7175 14.5 28.4783 14.5 24Z"
        stroke="#282828" stroke-width="1.5"/>

    <!-- İnsan ikonu (küçültülmüş, ortalanmış, siyah) -->
    <g transform="translate(16 16) translate(1.5 1.3) scale(0.55)">
        <path d="M6.57757 15.4816C5.1628 16.324 1.45336 18.0441 3.71266 20.1966C4.81631 21.248 6.04549 22 7.59087 22H16.4091C17.9545 22 19.1837 21.248 20.2873 20.1966C22.5466 18.0441 18.8372 16.324 17.4224 15.4816C14.1048 13.5061 9.89519 13.5061 6.57757 15.4816Z"
            stroke="#000000" stroke-width="1.5" stroke-linecap="round" stroke-linejoin="round"/>
        <path d="M16.5 6.5C16.5 8.98528 14.4853 11 12 11C9.51472 11 7.5 8.98528 7.5 6.5C7.5 4.01472 9.51472 2 12 2C14.4853 2 16.5 4.01472 16.5 6.5Z"
            stroke="#000000" stroke-width="1.5"/>
    </g>
</svg>
